<?xml version="1.0" encoding="UTF-8" standalone="no"?>
<!DOCTYPE svg PUBLIC "-//W3C//DTD SVG 1.1//EN"
"http://www.w3.org/Graphics/SVG/1.1/DTD/svg11.dtd">
<svg viewBox="0 0 1466 825" version="1.1" xmlns="http://www.w3.org/2000/svg" xmlns:xlink="http://www.w3.org/1999/xlink">
<defs>
<clipPath id="c0_4"><path d="M0,825V0H1466.6V825Z"/></clipPath>
<style type="text/css"><![CDATA[
.g0_4{
fill: #FFF;
}
.g1_4{
fill: #92D050;
}
.g2_4{
fill: #F8F;
}
.g3_4{
fill: none;
stroke: #000;
stroke-width: 1.082;
stroke-miterlimit: 3;
}
.g4_4{
fill: #E7E732;
}
.g5_4{
fill: #F2F2F2;
}
.g6_4{
fill: #D0CECE;
}
]]></style>
</defs>
<g clip-path="url(#c0_4)">
<path fill-rule="evenodd" d="M0,0H1466.6V825H0V0Z" class="g0_4"/>
<path fill-rule="evenodd" d="M0,0H1466.7V825H0V0Z" class="g0_4"/>
<image preserveAspectRatio="none" x="1289" y="13" width="148" height="78" xlink:href="img/1.png"/>
</g>
<path fill-rule="evenodd" d="M1110.6,760.6h-30.4V743.3H1141v17.3h-30.4Z" class="g1_4"/>
<path fill-rule="evenodd" d="M77.7,429.8H47.3V412.5h60.8v17.3H77.7Z" class="g2_4"/>
<path d="M77.7,429.8H47.3V412.5h60.8v17.3H77.7Z" class="g3_4"/>
<path fill-rule="evenodd" d="M1111.1,716.3h-30.4V699h60.7v17.3h-30.3Z" class="g4_4"/>
<image clip-path="url(#c0_4)" preserveAspectRatio="none" x="39" y="673" width="286" height="113" xlink:href="img/2.png"/>
<path fill-rule="evenodd" d="M1098.1,169.3h-17.4V117.2h34.7v52.1h-17.3Z" class="g5_4"/>
<path d="M1098.1,169.3h-17.4V117.2h34.7v52.1h-17.3Z" class="g3_4"/>
<path fill-rule="evenodd" d="M1167.5,169.3h-52.1V117.2h104.2v52.1h-52.1Z" class="g5_4"/>
<path d="M1167.5,169.3h-52.1V117.2h104.2v52.1h-52.1Z" class="g3_4"/>
<path fill-rule="evenodd" d="M1323.8,169.2h-34.7v-26h69.4v26h-34.7Z" class="g5_4"/>
<path d="M1323.8,169.2h-34.7v-26h69.4v26h-34.7Z" class="g3_4"/>
<path fill-rule="evenodd" d="M1254.3,169.2h-34.7v-26H1289v26h-34.7Z" class="g5_4"/>
<path d="M1254.3,169.2h-34.7v-26H1289v26h-34.7Z" class="g3_4"/>
<path fill-rule="evenodd" d="M1393.3,169.3h-34.8V117.2H1428v52.1h-34.7Z" class="g5_4"/>
<path d="M1393.3,169.3h-34.8V117.2H1428v52.1h-34.7Z" class="g3_4"/>
<path fill-rule="evenodd" d="M1289.1,143.2h-69.5v-26h138.9v26h-69.4Z" class="g5_4"/>
<path d="M1289.1,143.2h-69.5v-26h138.9v26h-69.4Z" class="g3_4"/>
<path fill-rule="evenodd" d="M1254.3,195.3H1080.7v-26H1428v26H1254.3Z" class="g6_4"/>
<path d="M1254.3,195.3H1080.7v-26H1428v26H1254.3ZM1098.1,230h-17.4V195.3h34.7V230h-17.3Zm69.4,0h-52.1V195.3h104.2V230h-52.1Zm86.8,0h-34.7V195.3H1289V230h-34.7Zm69.5,0h-34.7V195.3h69.4V230h-34.7Zm69.5,0h-34.8V195.3H1428V230h-34.7Z" class="g3_4"/>
<path fill-rule="evenodd" d="M1098.1,264.8h-17.4V230.1h34.7v34.7h-17.3Z" class="g5_4"/>
<path d="M1098.1,264.8h-17.4V230.1h34.7v34.7h-17.3Z" class="g3_4"/>
<path fill-rule="evenodd" d="M1167.5,264.8h-52.1V230.1h104.2v34.7h-52.1Z" class="g5_4"/>
<path d="M1167.5,264.8h-52.1V230.1h104.2v34.7h-52.1Z" class="g3_4"/>
<path fill-rule="evenodd" d="M1393.3,264.8h-34.8V230.1H1428v34.7h-34.7Z" class="g5_4"/>
<path d="M1393.3,264.8h-34.8V230.1H1428v34.7h-34.7Z" class="g3_4"/>
<path fill-rule="evenodd" d="M1323.8,264.8h-34.7V230.1h69.4v34.7h-34.7Z" class="g5_4"/>
<path d="M1323.8,264.8h-34.7V230.1h69.4v34.7h-34.7Z" class="g3_4"/>
<path fill-rule="evenodd" d="M1254.3,264.8h-34.7V230.1H1289v34.7h-34.7Z" class="g5_4"/>
<path d="M1254.3,264.8h-34.7V230.1H1289v34.7h-34.7Zm-156.2,34.7h-17.4V264.8h34.7v34.7h-17.3Zm69.4,0h-52.1V264.8h104.2v34.7h-52.1Zm86.8,0h-34.7V264.8H1289v34.7h-34.7Zm69.5,0h-34.7V264.8h69.4v34.7h-34.7Zm69.5,0h-34.8V264.8H1428v34.7h-34.7Z" class="g3_4"/>
<g clip-path="url(#c0_4)">
<image preserveAspectRatio="none" x="39" y="117" width="286" height="243" xlink:href="img/3.png"/>
<image preserveAspectRatio="none" x="1341" y="699" width="87" height="87" xlink:href="img/4.png"/>
</g>
<path d="M182,629.5H38.7v-191H325.2v191H182Z" class="g3_4"/>
<g clip-path="url(#c0_4)">
<image preserveAspectRatio="none" x="1081" y="447" width="347" height="191" xlink:href="img/5.png"/>
<image preserveAspectRatio="none" x="345" y="171" width="359" height="160" xlink:href="img/6.jpg"/>
<image preserveAspectRatio="none" x="720" y="172" width="339" height="159" xlink:href="img/7.jpg"/>
<image preserveAspectRatio="none" x="392" y="457" width="669" height="269" xlink:href="img/8.jpg"/>
</g>
</svg>