<?xml version="1.0" encoding="UTF-8" standalone="no"?>
<!DOCTYPE svg PUBLIC "-//W3C//DTD SVG 1.1//EN"
"http://www.w3.org/Graphics/SVG/1.1/DTD/svg11.dtd">
<svg viewBox="0 0 1466 825" version="1.1" xmlns="http://www.w3.org/2000/svg" xmlns:xlink="http://www.w3.org/1999/xlink">
<defs>
<clipPath id="c0_9"><path d="M0,825V0H1466.6V825Z"/></clipPath>
<style type="text/css"><![CDATA[
.g0_9{
fill: #FFF;
}
.g1_9{
fill: #92D050;
}
.g2_9{
fill: #F8F;
}
.g3_9{
fill: none;
stroke: #000;
stroke-width: 1.082;
stroke-miterlimit: 3;
}
.g4_9{
fill: #01B0F1;
}
.g5_9{
fill: #E7E732;
}
.g6_9{
fill: #F2F2F2;
}
.g7_9{
fill: #D0CECE;
}
]]></style>
</defs>
<g clip-path="url(#c0_9)">
<path fill-rule="evenodd" d="M0,0H1466.6V825H0V0Z" class="g0_9"/>
<path fill-rule="evenodd" d="M0,0H1466.7V825H0V0Z" class="g0_9"/>
<image preserveAspectRatio="none" x="1289" y="13" width="148" height="78" xlink:href="img/1.png"/>
</g>
<path fill-rule="evenodd" d="M1111.1,795.1h-30.4V777.8h60.7v17.3h-30.3Z" class="g1_9"/>
<path fill-rule="evenodd" d="M77.7,429.8H47.3V412.5h60.8v17.3H77.7Z" class="g2_9"/>
<path d="M77.7,429.8H47.3V412.5h60.8v17.3H77.7Z" class="g3_9"/>
<path fill-rule="evenodd" d="M1111.1,768.4h-30.4V751.1h60.7v17.3h-30.3Z" class="g4_9"/>
<path fill-rule="evenodd" d="M1111.1,729.4h-30.4V712.1h60.7v17.3h-30.3Z" class="g5_9"/>
<image clip-path="url(#c0_9)" preserveAspectRatio="none" x="39" y="673" width="286" height="113" xlink:href="img/2.png"/>
<path fill-rule="evenodd" d="M1098.1,169.3h-17.4V117.2h34.7v52.1h-17.3Z" class="g6_9"/>
<path d="M1098.1,169.3h-17.4V117.2h34.7v52.1h-17.3Z" class="g3_9"/>
<path fill-rule="evenodd" d="M1167.5,169.3h-52.1V117.2h104.2v52.1h-52.1Z" class="g6_9"/>
<path d="M1167.5,169.3h-52.1V117.2h104.2v52.1h-52.1Z" class="g3_9"/>
<path fill-rule="evenodd" d="M1323.8,169.2h-34.7v-26h69.4v26h-34.7Z" class="g6_9"/>
<path d="M1323.8,169.2h-34.7v-26h69.4v26h-34.7Z" class="g3_9"/>
<path fill-rule="evenodd" d="M1254.3,169.2h-34.7v-26H1289v26h-34.7Z" class="g6_9"/>
<path d="M1254.3,169.2h-34.7v-26H1289v26h-34.7Z" class="g3_9"/>
<path fill-rule="evenodd" d="M1393.3,169.3h-34.8V117.2H1428v52.1h-34.7Z" class="g6_9"/>
<path d="M1393.3,169.3h-34.8V117.2H1428v52.1h-34.7Z" class="g3_9"/>
<path fill-rule="evenodd" d="M1289.1,143.2h-69.5v-26h138.9v26h-69.4Z" class="g6_9"/>
<path d="M1289.1,143.2h-69.5v-26h138.9v26h-69.4Z" class="g3_9"/>
<path fill-rule="evenodd" d="M1254.3,195.3H1080.7v-26H1428v26H1254.3Z" class="g7_9"/>
<path d="M1254.3,195.3H1080.7v-26H1428v26H1254.3ZM1098.1,230h-17.4V195.3h34.7V230h-17.3Zm69.4,0h-52.1V195.3h104.2V230h-52.1Zm86.8,0h-34.7V195.3H1289V230h-34.7Zm69.5,0h-34.7V195.3h69.4V230h-34.7Zm69.5,0h-34.8V195.3H1428V230h-34.7Z" class="g3_9"/>
<path fill-rule="evenodd" d="M1098.1,264.8h-17.4V230.1h34.7v34.7h-17.3Z" class="g6_9"/>
<path d="M1098.1,264.8h-17.4V230.1h34.7v34.7h-17.3Z" class="g3_9"/>
<path fill-rule="evenodd" d="M1167.5,264.8h-52.1V230.1h104.2v34.7h-52.1Z" class="g6_9"/>
<path d="M1167.5,264.8h-52.1V230.1h104.2v34.7h-52.1Z" class="g3_9"/>
<path fill-rule="evenodd" d="M1393.3,264.8h-34.8V230.1H1428v34.7h-34.7Z" class="g6_9"/>
<path d="M1393.3,264.8h-34.8V230.1H1428v34.7h-34.7Z" class="g3_9"/>
<path fill-rule="evenodd" d="M1323.8,264.8h-34.7V230.1h69.4v34.7h-34.7Z" class="g6_9"/>
<path d="M1323.8,264.8h-34.7V230.1h69.4v34.7h-34.7Z" class="g3_9"/>
<path fill-rule="evenodd" d="M1254.3,264.8h-34.7V230.1H1289v34.7h-34.7Z" class="g6_9"/>
<path d="M1254.3,264.8h-34.7V230.1H1289v34.7h-34.7Zm-156.2,34.7h-17.4V264.8h34.7v34.7h-17.3Zm69.4,0h-52.1V264.8h104.2v34.7h-52.1Zm86.8,0h-34.7V264.8H1289v34.7h-34.7Zm69.5,0h-34.7V264.8h69.4v34.7h-34.7Zm69.5,0h-34.8V264.8H1428v34.7h-34.7ZM1098,334.2h-17.4V299.5h34.7v34.7H1098Zm69.5,-.1h-52.1V299.4h104.1v34.7h-52Zm86.7,.3h-34.7V298.9h69.4v35.5h-34.7Zm69.4,-.1h-34.7V299.6h69.4v34.7h-34.7Zm69.7,.2h-34.8V299.4H1428v35.1h-34.7Z" class="g3_9"/>
<g clip-path="url(#c0_9)">
<image preserveAspectRatio="none" x="39" y="117" width="286" height="243" xlink:href="img/3.png"/>
<image preserveAspectRatio="none" x="1341" y="699" width="87" height="87" xlink:href="img/4.png"/>
</g>
<path d="M182,629.5H38.7v-191H325.2v191H182Z" class="g3_9"/>
<image clip-path="url(#c0_9)" preserveAspectRatio="none" x="1081" y="447" width="347" height="191" xlink:href="img/5.png"/>
<path d="M1098.1,377.4h-17.4V334.3h34.7v43.1h-17.3Zm69.4,0h-52.1V334.3h104.2v43.1h-52.1Zm86.6,0h-34.7V334.3h69.4v43.1h-34.7Zm69.7,.1h-34.7V334.6h69.4v42.9h-34.7Zm69.4,-.1h-34.7V334.1h69.4v43.3h-34.7Z" class="g3_9"/>
<g clip-path="url(#c0_9)">
<image preserveAspectRatio="none" x="350" y="114" width="330" height="244" xlink:href="img/6.jpg"/>
<image preserveAspectRatio="none" x="700" y="115" width="322" height="243" xlink:href="img/7.jpg"/>
<image preserveAspectRatio="none" x="385" y="399" width="608" height="413" xlink:href="img/8.jpg"/>
</g>
</svg>