<?xml version="1.0" encoding="UTF-8" standalone="no"?>
<!DOCTYPE svg PUBLIC "-//W3C//DTD SVG 1.1//EN"
"http://www.w3.org/Graphics/SVG/1.1/DTD/svg11.dtd">
<svg viewBox="0 0 1466 825" version="1.1" xmlns="http://www.w3.org/2000/svg" xmlns:xlink="http://www.w3.org/1999/xlink">
<defs>
<clipPath id="c0_7"><path d="M0,825V0H1466.6V825Z"/></clipPath>
<clipPath id="c1_7"><path d="M0,74.9V0H782.2V74.9Z"/></clipPath>
<clipPath id="c2_7"><path d="M255.1,242.9V226.1h44.3v16.8Z"/></clipPath>
<clipPath id="c3_7"><path d="M366.7,187.9v-9.1h7.6v9.1Z"/></clipPath>
<clipPath id="c4_7"><path d="M368.2,174.2v-7.7h6.1v7.7Z"/></clipPath>
<clipPath id="c5_7"><path d="M436.9,168.1v-7.7h7.7v7.7Z"/></clipPath>
<clipPath id="c6_7"><path d="M227.6,325.4v-7.6H246v7.6Z"/></clipPath>
<clipPath id="c7_7"><path d="M56.5,249v-6.1h6.1V249Z"/></clipPath>
<clipPath id="c8_7"><path d="M223.1,397.2v-9.1H881.5v9.1Z"/></clipPath>
<clipPath id="c9_7"><path d="M650.8,258.2V249H825v9.2Z"/></clipPath>
<clipPath id="ca_7"><path d="M239.9,242.9v-7.6h7.6v7.6Z"/></clipPath>
<clipPath id="cb_7"><path d="M320.8,236.8V226.1h6.1v10.7Z"/></clipPath>
<clipPath id="cc_7"><path d="M68.8,336.1V311.7h38.1v24.4Z"/></clipPath>
<clipPath id="cd_7"><path d="M282.6,316.3V279.6h59.6v36.7Z"/></clipPath>
<clipPath id="ce_7"><path d="M684.4,825V753.2h782.2V825Z"/></clipPath>
<style type="text/css"><![CDATA[
.g0_7{
fill: #FFF;
}
.g1_7{
fill: #BEBEBE;
}
.g2_7{
fill: #FF12FF;
}
.g3_7{
fill: none;
stroke: #000;
stroke-width: 1.515;
stroke-linejoin: round;
}
.g4_7{
fill: none;
stroke: #2E528F;
stroke-width: 1.515;
stroke-linejoin: round;
}
.g5_7{
fill: none;
stroke: #000;
stroke-width: 2.468;
stroke-linejoin: round;
}
.g6_7{
fill: #D9D9D9;
}
.g7_7{
fill: none;
stroke: #000;
stroke-width: 1.298;
stroke-linejoin: round;
}
]]></style>
</defs>
<g clip-path="url(#c0_7)">
<path fill-rule="evenodd" d="M0,0H1466.6V825H0V0Z" class="g0_7"/>
<path fill-rule="evenodd" d="M0,0H1466.7V825H0V0Z" class="g0_7"/>
</g>
<g clip-path="url(#c1_7)" opacity="0.44">
<path fill-rule="evenodd" d="M781.3,0H0V73.6H643.3L781.3,0Z" class="g1_7"/>
</g>
<g clip-path="url(#c0_7)">
<image preserveAspectRatio="none" x="5" y="711" width="347" height="106" xlink:href="img/1.jpg"/>
<image preserveAspectRatio="none" x="5" y="540" width="261" height="190" xlink:href="img/2.jpg"/>
<image preserveAspectRatio="none" x="11" y="99" width="1042" height="380" xlink:href="img/3.jpg"/>
</g>
<g clip-path="url(#c2_7)" opacity="0.5">
<path fill-rule="evenodd" d="M298,226.3l-41.4,4.5l1.3,12.1l41.4,-4.5L298,226.3Z" class="g2_7"/>
</g>
<path d="M256.6,230.8L298,226.3l1.3,12.1l-41.4,4.5l-1.3,-12.1Z" class="g3_7"/>
<image clip-path="url(#c0_7)" preserveAspectRatio="none" x="345" y="163" width="19" height="29" xlink:href="img/4.png"/>
<g clip-path="url(#c3_7)" opacity="0.5">
<path fill-rule="evenodd" d="M368.3,179.5l-.3,7.1l5.9,.3l.4,-7.2l-6,-.2Z" class="g2_7"/>
</g>
<path d="M368,186.6l.3,-7.1l6,.2l-.4,7.2l-5.9,-.3Z" class="g3_7"/>
<g clip-path="url(#c4_7)" opacity="0.5">
<path fill-rule="evenodd" d="M368.8,167.9l-.3,5.5l5.5,.3l.3,-5.5l-5.5,-.3Z" class="g2_7"/>
</g>
<path d="M368.5,173.4l.3,-5.5l5.5,.3l-.3,5.5l-5.5,-.3Z" class="g3_7"/>
<g clip-path="url(#c5_7)" opacity="0.5">
<path fill-rule="evenodd" d="M438.7,161.3l-.3,5.4l5.5,.3l.3,-5.5l-5.5,-.2Z" class="g2_7"/>
</g>
<path d="M438.4,166.7l.3,-5.4l5.5,.2l-.3,5.5l-5.5,-.3Z" class="g3_7"/>
<g clip-path="url(#c6_7)" opacity="0.5">
<path fill-rule="evenodd" d="M228.5,318.2l-.3,6.3l16.8,.8l.3,-6.3l-16.8,-.8Z" class="g2_7"/>
</g>
<path d="M228.2,324.5l.3,-6.3l16.8,.8l-.3,6.3l-16.8,-.8Z" class="g3_7"/>
<g clip-path="url(#c7_7)" opacity="0.5">
<path fill-rule="evenodd" d="M57.1,243l-.2,5.5l5.4,.3l.3,-5.5L57.1,243Z" class="g2_7"/>
</g>
<path d="M56.9,248.5l.2,-5.5l5.5,.3l-.3,5.5l-5.4,-.3Z" class="g3_7"/>
<g clip-path="url(#c8_7)" opacity="0.5">
<path fill-rule="evenodd" d="M880.5,389H224v7.1H880.5V389Z" class="g2_7"/>
</g>
<path d="M224,396.1H880.5V389H224v7.1Z" class="g3_7"/>
<image clip-path="url(#c0_7)" preserveAspectRatio="none" x="552" y="141" width="27" height="17" xlink:href="img/5.png"/>
<g clip-path="url(#c9_7)" opacity="0.5">
<path fill-rule="evenodd" d="M824.9,250.4H651.5v7.1H824.9v-7.1Z" class="g2_7"/>
</g>
<path d="M651.5,257.5H824.9v-7.1H651.5v7.1Z" class="g3_7"/>
<path fill-rule="evenodd" d="M56.9,201.6l-7.8,.6l-7,1.5l-5.9,2.4l-4.5,3.1l-3,3.6l-1,4l1,4.1l3,3.6l4.5,3.1l5.9,2.4l7,1.5l7.8,.5l7.8,-.5L71.6,230l6,-2.4l4.6,-3.1l2.9,-3.6l1,-4.1l-1,-4l-2.9,-3.6l-4.6,-3.1l-6,-2.4l-6.9,-1.5l-7.8,-.6Z" class="g0_7"/>
<path d="M27.7,216.8l4,-7.6l4.5,-3.1l5.9,-2.4l7,-1.5l7.8,-.6l7.8,.6l6.9,1.5l6,2.4l4.6,3.1l2.9,3.6l1,4l-1,4.1l-2.9,3.6l-4.6,3.1l-6,2.4l-6.9,1.5l-7.8,.5l-7.8,-.5l-7,-1.5l-5.9,-2.4l-4.5,-3.1l-3,-3.6l-1,-4.1Z" class="g4_7"/>
<path fill-rule="evenodd" d="M248.8,185.1l-7.8,.6l-7,1.5l-5.9,2.4l-4.5,3.1l-3,3.6l-1,4l1,4.1l3,3.6l4.5,3.1l5.9,2.4l7,1.5l7.8,.5l7.7,-.5l7,-1.5l5.9,-2.4l4.5,-3.1l3,-3.6l1,-4.1l-1,-4l-3,-3.6l-4.5,-3.1l-5.9,-2.4l-7,-1.5l-7.7,-.6Z" class="g0_7"/>
<path d="M219.6,200.3l4,-7.6l4.5,-3.1l5.9,-2.4l7,-1.5l7.8,-.6l7.7,.6l7,1.5l5.9,2.4l4.5,3.1l3,3.6l1,4l-1,4.1l-3,3.6l-4.5,3.1l-5.9,2.4l-7,1.5l-7.7,.5L241,215l-7,-1.5l-5.9,-2.4L223.6,208l-3,-3.6l-1,-4.1Z" class="g4_7"/>
<path fill-rule="evenodd" d="M307.5,154.6l-7.8,.5l-6.9,1.5l-6,2.4l-4.5,3.1l-3,3.7l-1,4.1l1,4l3,3.7l4.5,3.1l6,2.4l6.9,1.5l7.8,.5l7.8,-.5l6.9,-1.5l6,-2.4l4.6,-3.1l2.9,-3.7l1.1,-4l-1.1,-4.1l-2.9,-3.7L328.2,159l-6,-2.4l-6.9,-1.5l-7.8,-.5Z" class="g0_7"/>
<path d="M278.3,169.9l4,-7.8l4.5,-3.1l6,-2.4l6.9,-1.5l7.8,-.5l7.8,.5l6.9,1.5l6,2.4l4.6,3.1l2.9,3.7l1.1,4.1l-1.1,4l-2.9,3.7l-4.6,3.1l-6,2.4l-6.9,1.5l-7.8,.5l-7.8,-.5l-6.9,-1.5l-6,-2.4l-4.5,-3.1l-3,-3.7l-1,-4Z" class="g4_7"/>
<path fill-rule="evenodd" d="M394.1,127.4l-7.8,.5l-7,1.5l-5.9,2.4l-4.6,3.1l-2.9,3.6l-1.1,4.1l1.1,4l2.9,3.6l4.6,3.1l5.9,2.4l7,1.5l7.8,.6l7.7,-.6l7,-1.5l5.9,-2.4l4.6,-3.1l2.9,-3.6l1.1,-4l-1.1,-4.1l-2.9,-3.6l-4.6,-3.1l-5.9,-2.4l-7,-1.5l-7.7,-.5Z" class="g0_7"/>
<path d="M364.8,142.6l4,-7.7l4.6,-3.1l5.9,-2.4l7,-1.5l7.8,-.5l7.7,.5l7,1.5l5.9,2.4l4.6,3.1l2.9,3.6l1.1,4.1l-1.1,4l-2.9,3.6l-4.6,3.1l-5.9,2.4l-7,1.5l-7.7,.6l-7.8,-.6l-7,-1.5l-5.9,-2.4l-4.6,-3.1l-2.9,-3.6l-1.1,-4Z" class="g4_7"/>
<path fill-rule="evenodd" d="M409.1,186.8l-7.8,.5l-7,1.6l-5.9,2.4l-4.6,3.1l-2.9,3.6l-1.1,4.1l1.1,4.1l2.9,3.6l4.6,3.1l5.9,2.4l7,1.6l7.8,.5l7.7,-.5l7,-1.6l5.9,-2.4l4.6,-3.1l3,-3.6l1,-4.1l-1,-4.1l-3,-3.6l-4.6,-3.1l-5.9,-2.4l-7,-1.6l-7.7,-.5Z" class="g0_7"/>
<path d="M379.8,202.1l4,-7.7l4.6,-3.1l5.9,-2.4l7,-1.6l7.8,-.5l7.7,.5l7,1.6l5.9,2.4l4.6,3.1l3,3.6l1,4.1l-1,4.1l-3,3.6l-4.6,3.1l-5.9,2.4l-7,1.6l-7.7,.5l-7.8,-.5l-7,-1.6l-5.9,-2.4l-4.6,-3.1l-2.9,-3.6l-1.1,-4.1Z" class="g4_7"/>
<path fill-rule="evenodd" d="M478.2,130.7l-7.8,.5l-7,1.5l-5.9,2.4l-4.6,3.1l-2.9,3.6l-1,4.1l1,4l2.9,3.6l4.6,3.1l5.9,2.4l7,1.5l7.8,.6l7.7,-.6l7,-1.5l6,-2.4l4.5,-3.1l3,-3.6l1,-4l-1,-4.1l-3,-3.6l-4.5,-3.1l-6,-2.4l-7,-1.5l-7.7,-.5Z" class="g0_7"/>
<path d="M449,145.9l3.9,-7.7l4.6,-3.1l5.9,-2.4l7,-1.5l7.8,-.5l7.7,.5l7,1.5l6,2.4l4.5,3.1l3,3.6l1,4.1l-1,4l-3,3.6l-4.5,3.1l-6,2.4l-7,1.5l-7.7,.6l-7.8,-.6l-7,-1.5l-5.9,-2.4l-4.6,-3.1L450,149.9l-1,-4Z" class="g4_7"/>
<path fill-rule="evenodd" d="M613.1,119.2l-7.8,.5l-6.9,1.6l-6,2.3l-4.5,3.2l-3,3.6l-1,4.1l1,4l3,3.7l4.5,3.1l6,2.4l6.9,1.5l7.8,.6l7.8,-.6l7,-1.5l5.9,-2.4l4.6,-3.1l2.9,-3.7l1.1,-4l-1.1,-4.1l-2.9,-3.6l-4.6,-3.2l-5.9,-2.3l-7,-1.6l-7.8,-.5Z" class="g0_7"/>
<path d="M583.9,134.5l4,-7.7l4.5,-3.2l6,-2.3l6.9,-1.6l7.8,-.5l7.8,.5l7,1.6l5.9,2.3l4.6,3.2l2.9,3.6l1.1,4.1l-1.1,4l-2.9,3.7l-4.6,3.1l-5.9,2.4l-7,1.5l-7.8,.6l-7.8,-.6l-6.9,-1.5l-6,-2.4l-4.5,-3.1l-3,-3.7l-1,-4Z" class="g4_7"/>
<path fill-rule="evenodd" d="M199,325.9l-7.8,.5l-7,1.6l-5.9,2.3l-4.6,3.2l-2.9,3.6l-1,4l1,4.1l2.9,3.6l4.6,3.1l5.9,2.4l7,1.5l7.8,.5l7.7,-.5l7,-1.5l6,-2.4l4.5,-3.1l3,-3.6l1,-4.1l-1,-4l-3,-3.6l-4.5,-3.2l-6,-2.3l-7,-1.6l-7.7,-.5Z" class="g0_7"/>
<path d="M169.8,341.1l3.9,-7.6l4.6,-3.2l5.9,-2.3l7,-1.6l7.8,-.5l7.7,.5l7,1.6l6,2.3l4.5,3.2l3,3.6l1,4l-1,4.1l-3,3.6l-4.5,3.1l-6,2.4l-7,1.5l-7.7,.5l-7.8,-.5l-7,-1.5l-5.9,-2.4l-4.6,-3.1l-2.9,-3.6l-1,-4.1Z" class="g4_7"/>
<path fill-rule="evenodd" d="M59.9,332.7l-7.8,.5l-7,1.6l-6,2.3l-4.5,3.2l-2.9,3.6l-1.1,4l1.1,4.1l2.9,3.6l4.5,3.1l6,2.4l7,1.5l7.8,.5l7.7,-.5l7,-1.5l5.9,-2.4l4.6,-3.1L88,352l1.1,-4.1l-1.1,-4l-2.9,-3.6l-4.6,-3.2l-5.9,-2.3l-7,-1.6l-7.7,-.5Z" class="g0_7"/>
<path d="M30.6,347.9l4,-7.6l4.5,-3.2l6,-2.3l7,-1.6l7.8,-.5l7.7,.5l7,1.6l5.9,2.3l4.6,3.2l2.9,3.6l1.1,4L88,352l-2.9,3.6l-4.6,3.1l-5.9,2.4l-7,1.5l-7.7,.5l-7.8,-.5l-7,-1.5l-6,-2.4l-4.5,-3.1L31.7,352l-1.1,-4.1Z" class="g4_7"/>
<path fill-rule="evenodd" d="M606.6,349.6l-7.8,.5l-7,1.6l-5.9,2.4l-4.6,3.1l-2.9,3.6l-1.1,4.1l1.1,4.1l2.9,3.6l4.6,3.1l5.9,2.4l7,1.6l7.8,.5l7.7,-.5l7,-1.6l5.9,-2.4l4.6,-3.1l3,-3.6l1,-4.1l-1,-4.1l-3,-3.6l-4.6,-3.1l-5.9,-2.4l-7,-1.6l-7.7,-.5Z" class="g0_7"/>
<path d="M577.3,364.9l4,-7.7l4.6,-3.1l5.9,-2.4l7,-1.6l7.8,-.5l7.7,.5l7,1.6l5.9,2.4l4.6,3.1l3,3.6l1,4.1l-1,4.1l-3,3.6l-4.6,3.1l-5.9,2.4l-7,1.6l-7.7,.5l-7.8,-.5l-7,-1.6l-5.9,-2.4l-4.6,-3.1L578.4,369l-1.1,-4.1Z" class="g4_7"/>
<image clip-path="url(#c0_7)" preserveAspectRatio="none" x="655" y="149" width="397" height="295" xlink:href="img/6.png"/>
<path fill-rule="evenodd" d="M701.5,213.2l-7.8,.5l-6.9,1.5l-6,2.4l-4.5,3.1l-3,3.6l-1,4.1l1,4l3,3.6l4.5,3.1l6,2.4l6.9,1.5l7.8,.6l7.8,-.6l7,-1.5l5.9,-2.4l4.6,-3.1l2.9,-3.6l1.1,-4l-1.1,-4.1l-2.9,-3.6l-4.6,-3.1l-5.9,-2.4l-7,-1.5l-7.8,-.5Z" class="g0_7"/>
<path d="M672.3,228.4l4,-7.7l4.5,-3.1l6,-2.4l6.9,-1.5l7.8,-.5l7.8,.5l7,1.5l5.9,2.4l4.6,3.1l2.9,3.6l1.1,4.1l-1.1,4l-2.9,3.6l-4.6,3.1l-5.9,2.4l-7,1.5l-7.8,.6l-7.8,-.6l-6.9,-1.5l-6,-2.4L676.3,236l-3,-3.6l-1,-4Z" class="g4_7"/>
<g clip-path="url(#ca_7)" opacity="0.5">
<path fill-rule="evenodd" d="M245.8,235.7l-5.7,.6l.6,5.4l5.7,-.6l-.6,-5.4Z" class="g2_7"/>
</g>
<path d="M245.8,235.7l-5.7,.6l.6,5.4l5.7,-.6l-.6,-5.4Z" class="g3_7"/>
<path fill-rule="evenodd" d="M189.3,228.6l-7.8,.5l-7,1.5l-5.9,2.4l-4.6,3.1l-2.9,3.6l-1,4.1l1,4l2.9,3.6l4.6,3.1l5.9,2.4l7,1.6l7.8,.5l7.7,-.5l7,-1.6l6,-2.4l4.5,-3.1l3,-3.6l1,-4l-1,-4.1l-3,-3.6L210,233l-6,-2.4l-7,-1.5l-7.7,-.5Z" class="g0_7"/>
<path d="M160.1,243.8l3.9,-7.7l4.6,-3.1l5.9,-2.4l7,-1.5l7.8,-.5l7.7,.5l7,1.5l6,2.4l4.5,3.1l3,3.6l1,4.1l-1,4l-3,3.6l-4.5,3.1l-6,2.4l-7,1.6l-7.7,.5l-7.8,-.5l-7,-1.6l-5.9,-2.4L164,251.4l-2.9,-3.6l-1,-4Z" class="g4_7"/>
<g clip-path="url(#cb_7)" opacity="0.5">
<path fill-rule="evenodd" d="M326.6,227H321v8.8h5.6V227Z" class="g2_7"/>
</g>
<path d="M321,235.8h5.6V227H321v8.8Z" class="g3_7"/>
<path fill-rule="evenodd" d="M360.7,237.2l-7.7,.6l-7,1.5l-5.9,2.4l-4.6,3.1l-2.9,3.7l-1,4l1,4.1l2.9,3.6l4.6,3.2l5.9,2.3l7,1.6l7.7,.5l7.8,-.5l7,-1.6l5.9,-2.3l4.5,-3.2l3,-3.6l1,-4.1l-1,-4l-3,-3.7l-4.5,-3.1l-5.9,-2.4l-7,-1.5l-7.8,-.6Z" class="g0_7"/>
<path d="M331.6,252.5l3.9,-7.7l4.6,-3.1l5.9,-2.4l7,-1.5l7.7,-.6l7.8,.6l7,1.5l5.9,2.4l4.5,3.1l3,3.7l1,4l-1,4.1l-3,3.6l-4.5,3.2l-5.9,2.3l-7,1.6l-7.8,.5l-7.7,-.5l-7,-1.6l-5.9,-2.3l-4.6,-3.2l-2.9,-3.6l-1,-4.1Z" class="g4_7"/>
<path fill-rule="evenodd" d="M321.8,317l-7.8,.5l-7,1.5l-5.9,2.4l-4.5,3.1l-3,3.7l-1,4.1l1,4l3,3.7l4.5,3.1l5.9,2.4l7,1.5l7.8,.5l7.8,-.5l6.9,-1.5l6,-2.4l4.6,-3.1l2.9,-3.7l1,-4l-1,-4.1l-2.9,-3.7l-4.6,-3.1l-6,-2.4l-6.9,-1.5l-7.8,-.5Z" class="g0_7"/>
<path d="M292.6,332.3l4,-7.8l4.5,-3.1L307,319l7,-1.5l7.8,-.5l7.8,.5l6.9,1.5l6,2.4l4.6,3.1l2.9,3.7l1,4.1l-1,4l-2.9,3.7l-4.6,3.1l-6,2.4l-6.9,1.5l-7.8,.5L314,347l-7,-1.5l-5.9,-2.4L296.6,340l-3,-3.7l-1,-4Z" class="g4_7"/>
<path d="M59.9,243.1L55.5,233" class="g3_7"/>
<g clip-path="url(#cc_7)" opacity="0.5">
<path fill-rule="evenodd" d="M70.2,312.5l-1,20.9l36.2,1.8l1,-21L70.2,312.5Z" class="g2_7"/>
</g>
<path d="M69.2,333.4l1,-20.9l36.2,1.7l-1,21L69.2,333.4Zm8.7,2.2L96.7,321.1m131.5,20l8.2,-15.7M218.5,243.7l21.6,-5.6m29.4,-26.9l7.9,17.4m49.3,2.7L340.4,242" class="g3_7"/>
<g clip-path="url(#cd_7)" opacity="0.5">
<path fill-rule="evenodd" d="M292.5,281.1l-9.8,26.1l1.5,8.5l57,-1.5L321.3,290.7l-28.8,-9.6Z" class="g2_7"/>
</g>
<path d="M341.2,314.2L321.3,290.7l-28.8,-9.6l-9.8,26.1l1.5,8.5l57,-1.5Z" class="g3_7"/>
<path d="M301.6,301.4v20.8" class="g5_7"/>
<path d="M352.7,175.6l-15.9,-5.8M387,191.7l-12.8,-8.4m-2.6,-15.1l1.8,-14.8m68.1,8l9.8,-8.9m115.5,-8.8l17.1,-8.8M719.9,240l18.4,10.4" class="g3_7"/>
<path fill-rule="evenodd" d="M1081.2,81.6h357.5v21.2H1081.2V81.6Z" class="g6_7"/>
<path fill-rule="evenodd" d="M1081.2,205.7h58.4v21.2h-58.4V205.7Z" class="g6_7"/>
<path fill-rule="evenodd" d="M1139.6,205.7h299.1v21.2H1139.6V205.7Z" class="g6_7"/>
<path fill-rule="evenodd" d="M1081.2,248.1h357.5v21.1H1081.2V248.1Z" class="g6_7"/>
<path fill-rule="evenodd" d="M1081.2,424.5h357.5v21.2H1081.2V424.5Z" class="g6_7"/>
<path fill-rule="evenodd" d="M1081.2,582.4h357.5v21.1H1081.2V582.4Z" class="g6_7"/>
<path d="M1080.6,59.7h358.8M1081.2,59V709.8M1139.6,59V82.3M1438.7,59V82.3m-358.1,-.7h358.8m-358.8,21.2h358.8m-299.8,-.6V248.7M1438.7,102.2V248.7M1080.6,122.9h358.8m-358.8,30.8h358.8m-358.8,30.8h358.8m-358.8,21.2h358.8m-358.8,21.2h358.8m-358.8,21.2h358.8m-358.8,21.1h358.8m-299.8,-.6V425.1M1438.7,268.6V425.1M1080.6,316.8h358.8m-358.8,56.8h358.8m-358.8,30.8h358.8m-358.8,20.1h358.8m-358.8,21.2h358.8M1139.6,445V583M1438.7,445V583M1080.6,466.9h358.8m-358.8,30.7h358.8m-358.8,21.2h358.8M1080.6,540h358.8m-358.8,21.2h358.8m-358.8,21.2h358.8m-358.8,21.1h358.8m-299.8,-.6V709.8M1438.7,602.9V709.8M1080.6,623.7h358.8m-358.8,21.1h358.8M1080.6,666h358.8m-358.8,21.2h358.8m-358.8,22h358.8" class="g7_7"/>
<g clip-path="url(#ce_7)" opacity="0.44">
<path fill-rule="evenodd" d="M1465.2,753.3H819.3l-134,71.6h779.9V753.3Z" class="g1_7"/>
</g>
</svg>