<?xml version="1.0" encoding="UTF-8" standalone="no"?>
<!DOCTYPE svg PUBLIC "-//W3C//DTD SVG 1.1//EN"
"http://www.w3.org/Graphics/SVG/1.1/DTD/svg11.dtd">
<svg viewBox="0 0 1466 825" version="1.1" xmlns="http://www.w3.org/2000/svg" xmlns:xlink="http://www.w3.org/1999/xlink">
<defs>
<clipPath id="c0_3"><path d="M0,825V0H1466.6V825Z"/></clipPath>
<clipPath id="c1_3"><path d="M119.2,597.4v-243H517.9v243Z"/></clipPath>
<clipPath id="c2_3"><path d="M206.3,223.1V44.3H310.1V223.1Z"/></clipPath>
<clipPath id="c3_3"><path d="M171.1,742.5V394.2H854V742.5Z"/></clipPath>
<clipPath id="c4_3"><path d="M145.1,411V377.4h36.7V411Z"/></clipPath>
<clipPath id="c5_3"><path d="M476.7,554.6V530.1h36.6v24.5Z"/></clipPath>
<clipPath id="c6_3"><path d="M861.7,779.2v-7.7h7.6v7.7Z"/></clipPath>
<clipPath id="c7_3"><path d="M873.9,782.2v-6.1h7.6v6.1Z"/></clipPath>
<clipPath id="c8_3"><path d="M163.5,388.1V67.2H339.2V388.1Z"/></clipPath>
<clipPath id="c9_3"><path d="M259.7,241.4V76.4H356v165Z"/></clipPath>
<clipPath id="ca_3"><path d="M491.9,788.3V546.9H909V788.3Z"/></clipPath>
<clipPath id="cb_3"><path d="M0,74.9V0H782.2V74.9Z"/></clipPath>
<clipPath id="cc_3"><path d="M684.4,825V753.2h782.2V825Z"/></clipPath>
<style type="text/css"><![CDATA[
.g0_3{
fill: #FFF;
}
.g1_3{
fill: #FF12FF;
}
.g2_3{
fill: none;
stroke: #000;
stroke-width: 1.515;
stroke-linejoin: round;
}
.g3_3{
fill: none;
stroke: #FFF;
stroke-width: 1.515;
stroke-linejoin: round;
}
.g4_3{
fill: none;
stroke: #2E528F;
stroke-width: 1.515;
stroke-linejoin: round;
}
.g5_3{
fill: #D9D9D9;
}
.g6_3{
fill: #BEBEBE;
}
.g7_3{
fill: none;
stroke: #000;
stroke-width: 1.298;
stroke-linejoin: round;
}
]]></style>
</defs>
<g clip-path="url(#c0_3)">
<path fill-rule="evenodd" d="M0,0H1466.6V825H0V0Z" class="g0_3"/>
<path fill-rule="evenodd" d="M0,0H1466.7V825H0V0Z" class="g0_3"/>
<image preserveAspectRatio="none" x="43" y="19" width="1017" height="804" xlink:href="img/1.png"/>
</g>
<g clip-path="url(#c1_3)" opacity="0.5">
<path fill-rule="evenodd" d="M147.4,355.6l-28,57.8L493.2,595.8L517,547.6L239.8,413.8l4.5,-11.5L147.4,355.6Z" class="g1_3"/>
</g>
<path d="M147.4,355.6l-28,57.8L493.2,595.8L517,547.6L239.8,413.8l4.5,-11.5L147.4,355.6Z" class="g2_3"/>
<g clip-path="url(#c2_3)" opacity="0.5">
<path fill-rule="evenodd" d="M281.4,45.8L208.1,180.5l-.9,18.3l11.9,17.5l9.1,5.5L309.9,61.3L281.4,45.8Z" class="g1_3"/>
</g>
<path d="M281.4,45.8L208.1,180.5l-.9,18.3l11.9,17.5l9.1,5.5L309.9,61.3L281.4,45.8Z" class="g2_3"/>
<path fill-rule="evenodd" d="M266.1,679.2H135.4v25.5H266.1V679.2Z" class="g0_3"/>
<path d="M135.4,704.7H266.1V679.2H135.4v25.5Z" class="g3_3"/>
<image clip-path="url(#c0_3)" preserveAspectRatio="none" x="0" y="714" width="350" height="111" xlink:href="img/2.jpg"/>
<path d="M295.1,136.2L277.7,123" class="g2_3"/>
<path fill-rule="evenodd" d="M845.4,786.2l-7.8,.5l-6.9,1.5l-6,2.4l-4.5,3.1l-3,3.7l-1,4l1,4.1l3,3.6l4.5,3.2l6,2.3l6.9,1.6l7.8,.5l7.8,-.5l7,-1.6l5.9,-2.3l4.6,-3.2l2.9,-3.6l1.1,-4.1l-1.1,-4l-2.9,-3.7l-4.6,-3.1l-5.9,-2.4l-7,-1.5l-7.8,-.5Z" class="g0_3"/>
<path d="M816.2,801.4l4,-7.7l4.5,-3.1l6,-2.4l6.9,-1.5l7.8,-.5l7.8,.5l7,1.5l5.9,2.4l4.6,3.1l2.9,3.7l1.1,4l-1.1,4.1l-2.9,3.6l-4.6,3.2l-5.9,2.3l-7,1.6l-7.8,.5l-7.8,-.5l-6.9,-1.6l-6,-2.3l-4.5,-3.2l-3,-3.6l-1,-4.1Z" class="g4_3"/>
<path fill-rule="evenodd" d="M91.8,375.4l-7.8,.5l-7,1.6l-5.9,2.3L66.5,383l-2.9,3.6l-1.1,4l1.1,4.1l2.9,3.6l4.6,3.1l5.9,2.4l7,1.5l7.8,.5l7.7,-.5l7,-1.5l5.9,-2.4l4.6,-3.1l3,-3.6l1,-4.1l-1,-4L117,383l-4.6,-3.2l-5.9,-2.3l-7,-1.6l-7.7,-.5Z" class="g0_3"/>
<path d="M62.5,390.6l4,-7.6l4.6,-3.2L77,377.5l7,-1.6l7.8,-.5l7.7,.5l7,1.6l5.9,2.3L117,383l3,3.6l1,4l-1,4.1l-3,3.6l-4.6,3.1l-5.9,2.4l-7,1.5l-7.7,.5L84,405.3l-7,-1.5l-5.9,-2.4l-4.6,-3.1l-2.9,-3.6l-1.1,-4.1Z" class="g4_3"/>
<path fill-rule="evenodd" d="M116.5,426.4l-7.8,.5l-7,1.5l-5.9,2.4l-4.6,3.1l-2.9,3.7l-1,4l1,4l2.9,3.7l4.6,3l5.9,2.4l7,1.6l7.8,.5l7.7,-.5l7,-1.6l6,-2.4l4.5,-3l3,-3.7l1,-4l-1,-4l-3,-3.7l-4.5,-3.1l-6,-2.4l-7,-1.5l-7.7,-.5Z" class="g0_3"/>
<path d="M87.3,441.6l3.9,-7.7l4.6,-3.1l5.9,-2.4l7,-1.5l7.8,-.5l7.7,.5l7,1.5l6,2.4l4.5,3.1l3,3.7l1,4l-1,4l-3,3.7l-4.5,3l-6,2.4l-7,1.6l-7.7,.5l-7.8,-.5l-7,-1.6l-5.9,-2.4l-4.6,-3l-2.9,-3.7l-1,-4Z" class="g4_3"/>
<path d="M496.6,538.8l20.2,-38.1m-.6,61.3l42.5,-24M868.6,775.2l20,-7.2m-11.3,13.9L868.6,793M176.3,400.5L207,381.9m-94.7,19.6l11.9,7.7m10.3,20.5l1.6,-14.3" class="g2_3"/>
<g clip-path="url(#c3_3)" opacity="0.5">
<path fill-rule="evenodd" d="M179,395.6l-6.7,13.5L846.8,741.9l6.7,-13.5L179,395.6Z" class="g1_3"/>
</g>
<path d="M172.3,409.1L179,395.6L853.5,728.4l-6.7,13.5L172.3,409.1Z" class="g2_3"/>
<g clip-path="url(#c4_3)" opacity="0.5">
<path fill-rule="evenodd" d="M154.7,377.9L145.3,397l26.4,13l9.4,-19.1l-26.4,-13Z" class="g1_3"/>
</g>
<path d="M154.7,377.9L145.3,397l26.4,13l9.4,-19.1l-26.4,-13Z" class="g2_3"/>
<g clip-path="url(#c5_3)" opacity="0.5">
<path fill-rule="evenodd" d="M480.4,531.1l-3.5,7.5l32.3,15.2l3.6,-7.6L480.4,531.1Z" class="g1_3"/>
</g>
<path d="M480.4,531.1l32.4,15.1l-3.6,7.6L476.9,538.6l3.5,-7.5Z" class="g2_3"/>
<path fill-rule="evenodd" d="M537.5,474.6l-7.8,.5l-6.9,1.5l-5.9,2.4l-4.6,3.1l-2.9,3.7l-1.1,4l1.1,4l2.9,3.7l4.6,3l5.9,2.4l6.9,1.6l7.8,.5l7.7,-.5l7,-1.6l5.9,-2.4l4.5,-3l3,-3.7l1,-4l-1,-4l-3,-3.7L558.1,479l-5.9,-2.4l-7,-1.5l-7.7,-.5Z" class="g0_3"/>
<path d="M508.3,489.8l4,-7.7l4.6,-3.1l5.9,-2.4l6.9,-1.5l7.8,-.5l7.7,.5l7,1.5l5.9,2.4l4.5,3.1l3,3.7l1,4l-1,4l-3,3.7l-4.5,3l-5.9,2.4l-7,1.6l-7.7,.5l-7.8,-.5l-6.9,-1.6l-5.9,-2.4l-4.6,-3l-2.9,-3.7l-1.1,-4Z" class="g4_3"/>
<path fill-rule="evenodd" d="M579.4,512l-7.8,.5l-7,1.6l-5.9,2.3l-4.5,3.2l-3,3.6l-1,4l1,4l3,3.7l4.5,3.1l5.9,2.3l7,1.6l7.8,.5l7.8,-.5l6.9,-1.6l6,-2.3l4.6,-3.1l2.9,-3.7l1,-4l-1,-4l-2.9,-3.6l-4.6,-3.2l-6,-2.3l-6.9,-1.6l-7.8,-.5Z" class="g0_3"/>
<path d="M550.2,527.2l4,-7.6l4.5,-3.2l5.9,-2.3l7,-1.6l7.8,-.5l7.8,.5l6.9,1.6l6,2.3l4.6,3.2l2.9,3.6l1,4l-1,4l-2.9,3.7l-4.6,3.1l-6,2.3l-6.9,1.6l-7.8,.5l-7.8,-.5l-7,-1.6L558.7,538l-4.5,-3.1l-3,-3.7l-1,-4Z" class="g4_3"/>
<path fill-rule="evenodd" d="M227.8,355.8l-7.8,.5l-7,1.5l-5.9,2.4l-4.6,3.1l-2.9,3.7l-1,4l1,4l2.9,3.7l4.6,3.1l5.9,2.3l7,1.6l7.8,.5l7.7,-.5l7,-1.6l6,-2.3l4.5,-3.1l3,-3.7l1,-4l-1,-4l-3,-3.7l-4.5,-3.1l-6,-2.4l-7,-1.5l-7.7,-.5Z" class="g0_3"/>
<path d="M198.6,371l3.9,-7.7l4.6,-3.1l5.9,-2.4l7,-1.5l7.8,-.5l7.7,.5l7,1.5l6,2.4l4.5,3.1l3,3.7l1,4l-1,4l-3,3.7l-4.5,3.1l-6,2.3l-7,1.6l-7.7,.5l-7.8,-.5l-7,-1.6l-5.9,-2.3l-4.6,-3.1L199.6,375l-1,-4Z" class="g4_3"/>
<path fill-rule="evenodd" d="M257,96.9l-7.8,.5L242.3,99l-5.9,2.3l-4.6,3.2l-2.9,3.6l-1.1,4l1.1,4l2.9,3.7l4.6,3.1l5.9,2.3l6.9,1.6l7.8,.5l7.7,-.5l7,-1.6l5.9,-2.3l4.5,-3.1l3,-3.7l1,-4l-1,-4l-3,-3.6l-4.5,-3.2L271.7,99l-7,-1.6L257,96.9Z" class="g0_3"/>
<path d="M227.8,112.1l4,-7.6l4.6,-3.2L242.3,99l6.9,-1.6l7.8,-.5l7.7,.5l7,1.6l5.9,2.3l4.5,3.2l3,3.6l1,4l-1,4l-3,3.7l-4.5,3.1l-5.9,2.3l-7,1.6l-7.7,.5l-7.8,-.5l-6.9,-1.6l-5.9,-2.3l-4.6,-3.1l-2.9,-3.7l-1.1,-4Z" class="g4_3"/>
<image clip-path="url(#c0_3)" preserveAspectRatio="none" x="124" y="407" width="15" height="10" xlink:href="img/3.png"/>
<g clip-path="url(#c6_3)" opacity="0.5">
<path fill-rule="evenodd" d="M868.7,772.4h-5.5v5.4h5.5v-5.4Z" class="g1_3"/>
</g>
<path d="M863.2,777.8h5.5v-5.4h-5.5v5.4Z" class="g2_3"/>
<g clip-path="url(#c7_3)" opacity="0.5">
<path fill-rule="evenodd" d="M880.2,776.4h-5.5v5.5h5.5v-5.5Z" class="g1_3"/>
</g>
<path d="M874.7,781.9h5.5v-5.5h-5.5v5.5Z" class="g2_3"/>
<g clip-path="url(#c8_3)" opacity="0.5">
<path fill-rule="evenodd" d="M328.2,68.6L164.7,382.7l10,5.2L338.3,73.8L328.2,68.6Z" class="g1_3"/>
</g>
<path d="M328.2,68.6l10.1,5.2L174.7,387.9l-10,-5.2L328.2,68.6Z" class="g2_3"/>
<path fill-rule="evenodd" d="M909.4,741.9l-7.8,.5l-7,1.5l-5.9,2.4l-4.5,3.1l-3,3.7l-1,4l1,4l3,3.7l4.5,3.1l5.9,2.3l7,1.6l7.8,.5l7.8,-.5l6.9,-1.6l6,-2.3l4.6,-3.1l2.9,-3.7l1,-4l-1,-4l-2.9,-3.7l-4.6,-3.1l-6,-2.4l-6.9,-1.5l-7.8,-.5Z" class="g0_3"/>
<path d="M880.2,757.1l4,-7.7l4.5,-3.1l5.9,-2.4l7,-1.5l7.8,-.5l7.8,.5l6.9,1.5l6,2.4l4.6,3.1l2.9,3.7l1,4l-1,4l-2.9,3.7l-4.6,3.1l-6,2.3l-6.9,1.6l-7.8,.5l-7.8,-.5l-7,-1.6l-5.9,-2.3l-4.5,-3.1l-3,-3.7l-1,-4Z" class="g4_3"/>
<path fill-rule="evenodd" d="M318.6,402.1l-7.8,.5l-7,1.5l-5.8,2.4l-4.6,3.1l-2.9,3.7l-1.1,4.1l1.1,4l2.9,3.7l4.6,3.1l5.8,2.4l7,1.5l7.8,.5l7.7,-.5l7,-1.5l5.9,-2.4l4.5,-3.1l3,-3.7l1,-4l-1,-4.1l-3,-3.7l-4.5,-3.1l-5.9,-2.4l-7,-1.5l-7.7,-.5Z" class="g0_3"/>
<path d="M289.4,417.4l4,-7.8l4.6,-3.1l5.8,-2.4l7,-1.5l7.8,-.5l7.7,.5l7,1.5l5.9,2.4l4.5,3.1l3,3.7l1,4.1l-1,4l-3,3.7l-4.5,3.1l-5.9,2.4l-7,1.5l-7.7,.5l-7.8,-.5l-7,-1.5L298,428.2l-4.6,-3.1l-2.9,-3.7l-1.1,-4Z" class="g4_3"/>
<path fill-rule="evenodd" d="M682.8,568.7l-7.8,.5l-6.9,1.6l-6,2.4l-4.5,3.1l-3,3.6l-1,4.1l1,4.1l3,3.6l4.5,3.1l6,2.4l6.9,1.6l7.8,.5l7.8,-.5l6.9,-1.6l6,-2.4l4.6,-3.1l2.9,-3.6l1.1,-4.1L711,579.9l-2.9,-3.6l-4.6,-3.1l-6,-2.4l-6.9,-1.6l-7.8,-.5Z" class="g0_3"/>
<path d="M653.6,584l4,-7.7l4.5,-3.1l6,-2.4l6.9,-1.6l7.8,-.5l7.8,.5l6.9,1.6l6,2.4l4.6,3.1l2.9,3.6l1.1,4.1l-1.1,4.1l-2.9,3.6l-4.6,3.1l-6,2.4l-6.9,1.6l-7.8,.5l-7.8,-.5l-6.9,-1.6l-6,-2.4l-4.5,-3.1l-3,-3.6l-1,-4.1Z" class="g4_3"/>
<path d="M307.3,454.3l11.3,-21.6M644.8,620l17.3,-25.3" class="g2_3"/>
<image clip-path="url(#c0_3)" preserveAspectRatio="none" x="845" y="723" width="24" height="29" xlink:href="img/4.png"/>
<path fill-rule="evenodd" d="M873.1,655.2l-7.8,.6l-7,1.5l-5.9,2.4l-4.5,3.1l-3,3.7l-1,4l1,4.1l3,3.6l4.5,3.2l5.9,2.3l7,1.6l7.8,.5l7.8,-.5l6.9,-1.6l6,-2.3l4.6,-3.2l2.9,-3.6l1,-4.1l-1,-4l-2.9,-3.7l-4.6,-3.1l-6,-2.4l-6.9,-1.5l-7.8,-.6Z" class="g0_3"/>
<path d="M843.9,670.5l4,-7.7l4.5,-3.1l5.9,-2.4l7,-1.5l7.8,-.6l7.8,.6l6.9,1.5l6,2.4l4.6,3.1l2.9,3.7l1,4l-1,4.1l-2.9,3.6l-4.6,3.2l-6,2.3l-6.9,1.6l-7.8,.5l-7.8,-.5l-7,-1.6l-5.9,-2.3l-4.5,-3.2l-3,-3.6l-1,-4.1Z" class="g4_3"/>
<path d="M873.1,685.8l-11.2,41.4" class="g2_3"/>
<image clip-path="url(#c0_3)" preserveAspectRatio="none" x="5" y="564" width="261" height="190" xlink:href="img/5.jpg"/>
<g clip-path="url(#c9_3)" opacity="0.5">
<path fill-rule="evenodd" d="M345.5,77.9L260.3,238.3l12.8,1.9l13.7,-1.9L303.3,231l34.9,-65.1V151.2L354.6,121L351,81.5l-5.5,-3.6Z" class="g1_3"/>
</g>
<path d="M345.5,77.9L260.3,238.3l12.8,1.9l13.7,-1.9L303.3,231l34.9,-65.1V151.2L354.6,121L351,81.5l-5.5,-3.6Z" class="g2_3"/>
<g clip-path="url(#ca_3)" opacity="0.5">
<path fill-rule="evenodd" d="M517.1,547.2l-23.9,48.9L880,787.4l27.5,-58.7L825,686.7l-5.2,10.6L517.1,547.2Z" class="g1_3"/>
</g>
<path d="M517,547.2L819.8,697.3L825,686.7l82.4,42l-27.5,58.7L493.1,596.1L517,547.2ZM208,180.5l-29.7,-8.6" class="g2_3"/>
<path fill-rule="evenodd" d="M156.6,145.7l-7.8,.5l-6.9,1.6l-6,2.3l-4.5,3.2l-3,3.6l-1,4l1,4.1l3,3.6l4.5,3.1l6,2.4l6.9,1.5l7.8,.5l7.8,-.5l7,-1.5l5.9,-2.4l4.6,-3.1l2.9,-3.6l1.1,-4.1l-1.1,-4l-2.9,-3.6l-4.6,-3.2l-5.9,-2.3l-7,-1.6l-7.8,-.5Z" class="g0_3"/>
<path d="M127.4,160.9l4,-7.6l4.5,-3.2l6,-2.3l6.9,-1.6l7.8,-.5l7.8,.5l7,1.6l5.9,2.3l4.6,3.2l2.9,3.6l1.1,4l-1.1,4.1l-2.9,3.6l-4.6,3.1l-5.9,2.4l-7,1.5l-7.8,.5l-7.8,-.5l-6.9,-1.5l-6,-2.4l-4.5,-3.1l-3,-3.6l-1,-4.1Z" class="g4_3"/>
<path fill-rule="evenodd" d="M1021.3,81.2h414.3v21.9H1021.3V81.2Z" class="g5_3"/>
<path fill-rule="evenodd" d="M1021.3,125.1h414.3v22H1021.3v-22Z" class="g5_3"/>
<path d="M1020.6,57.3h415.6m-414.9,-.6V390.4M1095.9,56.7V81.8M1435.6,56.7V81.8m-415,-.6h415.6m-415.6,21.9h415.6m-340.3,-.6v23.3m339.7,-23.3v23.3m-415,-.7h415.6m-415.6,22h415.6m-340.3,-.7v244m339.7,-244v244m-415,-220.8h415.6m-415.6,22h415.6m-415.6,21.9h415.6m-415.6,22h415.6m-415.6,22h415.6m-415.6,22h415.6m-415.6,22h415.6m-415.6,21.9h415.6m-415.6,22h415.6m-415.6,22h415.6m-415.6,22.3h415.6" class="g7_3"/>
<g clip-path="url(#cb_3)" opacity="0.44">
<path fill-rule="evenodd" d="M781.3,0H0V73.6H643.3L781.3,0Z" class="g6_3"/>
</g>
<g clip-path="url(#cc_3)" opacity="0.44">
<path fill-rule="evenodd" d="M1465.2,753.2H819.3L685.3,825h779.9V753.2Z" class="g6_3"/>
</g>
</svg>