<?xml version="1.0" encoding="UTF-8" standalone="no"?>
<!DOCTYPE svg PUBLIC "-//W3C//DTD SVG 1.1//EN"
"http://www.w3.org/Graphics/SVG/1.1/DTD/svg11.dtd">
<svg viewBox="0 0 1466 825" version="1.1" xmlns="http://www.w3.org/2000/svg" xmlns:xlink="http://www.w3.org/1999/xlink">
<defs>
<clipPath id="c0_17"><path d="M0,825V0H1466.6V825Z"/></clipPath>
<clipPath id="c1_17"><path d="M47.4,304v-4.6H236.8V304Z"/></clipPath>
<clipPath id="c2_17"><path d="M192.5,313.2v-3.1h4.6v3.1Z"/></clipPath>
<clipPath id="c3_17"><path d="M195.6,313.2v-3.1h4.5v3.1Z"/></clipPath>
<style type="text/css"><![CDATA[
.g0_17{
fill: #FFF;
}
.g1_17{
fill: none;
stroke: #000;
stroke-width: 4.59;
stroke-linecap: square;
stroke-miterlimit: 3;
}
.g2_17{
fill: #FF12FF;
}
.g3_17{
fill: none;
stroke: #000;
stroke-width: 1.515;
stroke-linejoin: round;
}
.g4_17{
fill: none;
stroke: #2E528F;
stroke-width: 1.515;
stroke-linejoin: round;
}
.g5_17{
fill: #F8F;
}
.g6_17{
fill: none;
stroke: #000;
stroke-width: 1.082;
stroke-miterlimit: 3;
}
.g7_17{
fill: #F2F2F2;
}
.g8_17{
fill: #D0CECE;
}
.g9_17{
fill: #E7E732;
}
.ga_17{
fill: #92D050;
}
]]></style>
</defs>
<g clip-path="url(#c0_17)">
<path fill-rule="evenodd" d="M0,0H1466.6V825H0V0Z" class="g0_17"/>
<path fill-rule="evenodd" d="M0,0H1466.7V825H0V0Z" class="g0_17"/>
<image preserveAspectRatio="none" x="1289" y="13" width="148" height="78" xlink:href="img/1.png"/>
<image preserveAspectRatio="none" x="39" y="673" width="286" height="113" xlink:href="img/2.png"/>
<image preserveAspectRatio="none" x="48" y="119" width="281" height="236" xlink:href="img/3.png"/>
</g>
<path d="M45.9,116.9H331.3V357.2H45.9V116.9Z" class="g1_17"/>
<path d="M110.5,325.1h3.9V310.3h-3.9v14.8Zm6,0h3.8V310.3h-3.8v14.8Zm10.2,-11.8h10.1v8.5h-2.2v7.9H127l-.3,-16.4Z" class="g3_17"/>
<g clip-path="url(#c1_17)" opacity="0.5">
<path fill-rule="evenodd" d="M236.3,300.2H48.2v2.5H236.3v-2.5Z" class="g2_17"/>
</g>
<path d="M48.2,302.7H236.3v-2.5H48.2v2.5Z" class="g3_17"/>
<g clip-path="url(#c2_17)" opacity="0.5">
<path fill-rule="evenodd" d="M196.1,310.6H194V313h2.1v-2.4Z" class="g2_17"/>
</g>
<g clip-path="url(#c3_17)" opacity="0.5">
<path fill-rule="evenodd" d="M199.9,310.6h-3V313h3v-2.4Z" class="g2_17"/>
</g>
<path fill-rule="evenodd" d="M87.9,265.1l-7.8,.5l-7,1.6l-5.8,2.4l-4.6,3.1l-2.9,3.6l-1.1,4.1l1.1,4.1l2.9,3.6l4.6,3.1l5.8,2.4l7,1.6l7.8,.5l7.7,-.5l7,-1.6l5.9,-2.4l4.5,-3.1l3,-3.6l1,-4.1l-1,-4.1l-3,-3.6l-4.5,-3.1l-5.9,-2.4l-7,-1.6l-7.7,-.5Z" class="g0_17"/>
<path d="M58.7,280.4l4,-7.7l4.6,-3.1l5.8,-2.4l7,-1.6l7.8,-.5l7.7,.5l7,1.6l5.9,2.4l4.5,3.1l3,3.6l1,4.1l-1,4.1l-3,3.6l-4.5,3.1l-5.9,2.4l-7,1.6l-7.7,.5l-7.8,-.5l-7,-1.6l-5.8,-2.4l-4.6,-3.1l-2.9,-3.6l-1.1,-4.1Z" class="g4_17"/>
<g clip-path="url(#c0_17)">
<image preserveAspectRatio="none" x="716" y="128" width="347" height="226" xlink:href="img/4.jpg"/>
<image preserveAspectRatio="none" x="352" y="128" width="329" height="226" xlink:href="img/5.jpg"/>
</g>
<path fill-rule="evenodd" d="M77.7,429.8H47.3V412.5h60.8v17.3H77.7Z" class="g5_17"/>
<path d="M77.7,429.8H47.3V412.5h60.8v17.3H77.7ZM182,629.5H38.7v-191H325.2v191H182Z" class="g6_17"/>
<image clip-path="url(#c0_17)" preserveAspectRatio="none" x="418" y="395" width="596" height="398" xlink:href="img/6.jpg"/>
<path fill-rule="evenodd" d="M1167.5,169.3h-52.1V117.2h104.2v52.1h-52.1Z" class="g7_17"/>
<path d="M1167.5,169.3h-52.1V117.2h104.2v52.1h-52.1Z" class="g6_17"/>
<path fill-rule="evenodd" d="M1323.8,169.2h-34.7v-26h69.4v26h-34.7Z" class="g7_17"/>
<path d="M1323.8,169.2h-34.7v-26h69.4v26h-34.7Z" class="g6_17"/>
<path fill-rule="evenodd" d="M1254.3,169.2h-34.7v-26H1289v26h-34.7Z" class="g7_17"/>
<path d="M1254.3,169.2h-34.7v-26H1289v26h-34.7Z" class="g6_17"/>
<path fill-rule="evenodd" d="M1393.3,169.3h-34.8V117.2H1428v52.1h-34.7Z" class="g7_17"/>
<path d="M1393.3,169.3h-34.8V117.2H1428v52.1h-34.7Z" class="g6_17"/>
<path fill-rule="evenodd" d="M1289.1,143.2h-69.5v-26h138.9v26h-69.4Z" class="g7_17"/>
<path d="M1289.1,143.2h-69.5v-26h138.9v26h-69.4Z" class="g6_17"/>
<path fill-rule="evenodd" d="M1254.3,195.3H1080.7v-26H1428v26H1254.3Z" class="g8_17"/>
<path d="M1254.3,195.3H1080.7v-26H1428v26H1254.3Zm-156.2,62.5h-17.4V195.3h34.7v62.5h-17.3Zm69.4,0h-52.1V195.3h104.2v62.5h-52.1Zm86.8,0h-34.7V195.3H1289v62.5h-34.7Zm69.5,0h-34.7V195.3h69.4v62.5h-34.7Zm69.5,0h-34.8V195.3H1428v62.5h-34.7Z" class="g6_17"/>
<path fill-rule="evenodd" d="M1098.1,292.5h-17.4V257.9h34.7v34.6h-17.3Z" class="g7_17"/>
<path d="M1098.1,292.5h-17.4V257.9h34.7v34.6h-17.3Z" class="g6_17"/>
<path fill-rule="evenodd" d="M1167.5,292.5h-52.1V257.9h104.2v34.6h-52.1Z" class="g7_17"/>
<path d="M1167.5,292.5h-52.1V257.9h104.2v34.6h-52.1Z" class="g6_17"/>
<path fill-rule="evenodd" d="M1393.3,292.5h-34.8V257.9H1428v34.6h-34.7Z" class="g7_17"/>
<path d="M1393.3,292.5h-34.8V257.9H1428v34.6h-34.7Z" class="g6_17"/>
<path fill-rule="evenodd" d="M1323.8,292.5h-34.7V257.9h69.4v34.6h-34.7Z" class="g7_17"/>
<path d="M1323.8,292.5h-34.7V257.9h69.4v34.6h-34.7Z" class="g6_17"/>
<path fill-rule="evenodd" d="M1254.3,292.5h-34.7V257.9H1289v34.6h-34.7Z" class="g7_17"/>
<path d="M1254.3,292.5h-34.7V257.9H1289v34.6h-34.7Zm-156.2,34.8h-17.4V292.6h34.7v34.7h-17.3Zm69.4,0h-52.1V292.6h104.2v34.7h-52.1Zm86.8,0h-34.7V292.6H1289v34.7h-34.7Zm69.5,0h-34.7V292.6h69.4v34.7h-34.7Zm69.5,0h-34.8V292.6H1428v34.7h-34.7Z" class="g6_17"/>
<path fill-rule="evenodd" d="M1098.1,169.3h-17.4V117.2h34.7v52.1h-17.3Z" class="g7_17"/>
<path d="M1098.1,169.3h-17.4V117.2h34.7v52.1h-17.3Z" class="g6_17"/>
<path fill-rule="evenodd" d="M1111.1,716.3h-30.4V699h60.7v17.3h-30.3Z" class="g9_17"/>
<path fill-rule="evenodd" d="M1111.1,759.8h-30.4V742.5h60.7v17.3h-30.3Z" class="ga_17"/>
<g clip-path="url(#c0_17)">
<image preserveAspectRatio="none" x="1334" y="685" width="103" height="101" xlink:href="img/7.jpg"/>
<image preserveAspectRatio="none" x="1155" y="450" width="220" height="203" xlink:href="img/8.jpg"/>
</g>
</svg>