<?xml version="1.0" encoding="UTF-8" standalone="no"?>
<!DOCTYPE svg PUBLIC "-//W3C//DTD SVG 1.1//EN"
"http://www.w3.org/Graphics/SVG/1.1/DTD/svg11.dtd">
<svg viewBox="0 0 1466 825" version="1.1" xmlns="http://www.w3.org/2000/svg" xmlns:xlink="http://www.w3.org/1999/xlink">
<defs>
<clipPath id="c0_14"><path d="M0,825V0H1466.6V825Z"/></clipPath>
<clipPath id="c1_14"><path d="M679.9,825V750.1h785.2V825Z"/></clipPath>
<clipPath id="c2_14"><path d="M0,74.9V0H782.2V74.9Z"/></clipPath>
<clipPath id="c3_14"><path d="M236.8,441.5V406.4h16.8v35.1Z"/></clipPath>
<clipPath id="c4_14"><path d="M259.7,441.5V406.4H275v35.1Z"/></clipPath>
<clipPath id="c5_14"><path d="M213.9,414v-7.6h7.6V414Z"/></clipPath>
<clipPath id="c6_14"><path d="M296.4,450.7V412.5h39.7v38.2Z"/></clipPath>
<clipPath id="c7_14"><path d="M7.6,391.1v-7.6H702.8v7.6Z"/></clipPath>
<clipPath id="c8_14"><path d="M543.9,414v-7.6h10.7V414Z"/></clipPath>
<clipPath id="c9_14"><path d="M556.1,414v-7.6h12.2V414Z"/></clipPath>
<clipPath id="ca_14"><path d="M825,227.6V207.8h13.8v19.8Z"/></clipPath>
<clipPath id="cb_14"><path d="M828.1,203.2v-7.6h7.6v7.6Z"/></clipPath>
<style type="text/css"><![CDATA[
.g0_14{
fill: #FFF;
}
.g1_14{
fill: #BEBEBE;
}
.g2_14{
fill: #D9D9D9;
}
.g3_14{
fill: none;
stroke: #000;
stroke-width: 1.298;
stroke-linejoin: round;
}
.g4_14{
fill: none;
stroke: #2E528F;
stroke-width: 1.515;
stroke-linejoin: round;
}
.g5_14{
fill: #FF12FF;
}
.g6_14{
fill: none;
stroke: #000;
stroke-width: 1.515;
stroke-linejoin: round;
}
.g7_14{
fill: none;
stroke: #000;
stroke-width: 2.295;
stroke-linejoin: round;
}
]]></style>
</defs>
<g clip-path="url(#c0_14)">
<path fill-rule="evenodd" d="M0,0H1466.6V825H0V0Z" class="g0_14"/>
<path fill-rule="evenodd" d="M0,0H1466.7V825H0V0Z" class="g0_14"/>
</g>
<g clip-path="url(#c1_14)" opacity="0.44">
<path fill-rule="evenodd" d="M1463.9,751.2H818L680,824.9h783.9V751.2Z" class="g1_14"/>
</g>
<g clip-path="url(#c2_14)" opacity="0.44">
<path fill-rule="evenodd" d="M781.3,0H0V73.6H643.3L781.3,0Z" class="g1_14"/>
</g>
<g clip-path="url(#c0_14)">
<image preserveAspectRatio="none" x="0" y="712" width="352" height="113" xlink:href="img/1.jpg"/>
<image preserveAspectRatio="none" x="5" y="540" width="261" height="190" xlink:href="img/2.jpg"/>
</g>
<path fill-rule="evenodd" d="M1047,52.4h414.4V72.6H1047V52.4Z" class="g2_14"/>
<path fill-rule="evenodd" d="M1047,193.5h414.4v20.1H1047V193.5Z" class="g2_14"/>
<path fill-rule="evenodd" d="M1047,236.2h414.4v20.1H1047V236.2Z" class="g2_14"/>
<path fill-rule="evenodd" d="M1047,276.5h414.4v20.2H1047V276.5Z" class="g2_14"/>
<path fill-rule="evenodd" d="M1047,357.1h414.4v20.1H1047V357.1Z" class="g2_14"/>
<path fill-rule="evenodd" d="M1047,518.3h414.4v20.1H1047V518.3Z" class="g2_14"/>
<path d="M1046.4,30.4H1462m-415,-.6V741.2M1200.2,29.8V53.1M1461.4,29.8V53.1m-415,-.7H1462M1046.4,72.6H1462m-261.8,-.7V194.1M1461.4,71.9V194.1M1046.4,92.7H1462m-415.6,20.2H1462M1046.4,133H1462m-415.6,20.2H1462m-415.6,20.1H1462m-415.6,20.2H1462m-415.6,20.1H1462M1200.2,213v23.8M1461.4,213v23.8m-415,-.6H1462m-415.6,20.1H1462m-261.8,-.6v21.4m261.2,-21.4v21.4m-415,-.6H1462m-415.6,20.2H1462M1200.2,296v61.7M1461.4,296v61.7m-415,-40.9H1462m-415.6,20.1H1462m-415.6,20.2H1462m-415.6,20.1H1462m-261.8,-.6V518.9M1461.4,376.6V518.9m-415,-121.5H1462m-415.6,20.1H1462m-415.6,20.2H1462m-415.6,20.1H1462M1046.4,478H1462m-415.6,20.2H1462m-415.6,20.1H1462m-415.6,20.1H1462m-261.8,-.6V741.2M1461.4,537.8V741.2m-415,-182.6H1462m-415.6,20.2H1462m-415.6,20.1H1462m-415.6,20.2H1462m-415.6,20.1H1462m-415.6,20.2H1462m-415.6,20.1H1462m-415.6,20.1H1462m-415.6,20.2H1462m-415.6,20.8H1462" class="g3_14"/>
<image clip-path="url(#c0_14)" preserveAspectRatio="none" x="8" y="86" width="1037" height="396" xlink:href="img/3.jpg"/>
<path fill-rule="evenodd" d="M80.4,190.4l-7.8,.5l-7,1.6l-5.9,2.3L55.1,198l-2.9,3.6l-1.1,4l1.1,4l2.9,3.7l4.6,3.1l5.9,2.3l7,1.6l7.8,.5l7.7,-.5l7,-1.6l5.9,-2.3l4.6,-3.1l3,-3.7l1,-4l-1,-4l-3,-3.6L101,194.8l-5.9,-2.3l-7,-1.6l-7.7,-.5Z" class="g0_14"/>
<path d="M51.1,205.6l4,-7.6l4.6,-3.2l5.9,-2.3l7,-1.6l7.8,-.5l7.7,.5l7,1.6l5.9,2.3l4.6,3.2l3,3.6l1,4l-1,4l-3,3.7l-4.6,3.1l-5.9,2.3l-7,1.6l-7.7,.5l-7.8,-.5l-7,-1.6l-5.9,-2.3l-4.6,-3.1l-2.9,-3.7l-1.1,-4Z" class="g4_14"/>
<path fill-rule="evenodd" d="M75.4,274.8l-7.8,.5l-6.9,1.6l-6,2.4l-4.5,3.1l-3,3.6l-1,4.1l1,4.1l3,3.6l4.5,3.1l6,2.4l6.9,1.6l7.8,.5l7.8,-.5l7,-1.6l5.9,-2.4l4.6,-3.1l2.9,-3.6l1.1,-4.1L103.6,286l-2.9,-3.6l-4.6,-3.1l-5.9,-2.4l-7,-1.6l-7.8,-.5Z" class="g0_14"/>
<path d="M46.2,290.1l4,-7.7l4.5,-3.1l6,-2.4l6.9,-1.6l7.8,-.5l7.8,.5l7,1.6l5.9,2.4l4.6,3.1l2.9,3.6l1.1,4.1l-1.1,4.1l-2.9,3.6l-4.6,3.1l-5.9,2.4l-7,1.6l-7.8,.5l-7.8,-.5l-6.9,-1.6l-6,-2.4l-4.5,-3.1l-3,-3.6l-1,-4.1Z" class="g4_14"/>
<path fill-rule="evenodd" d="M90.1,345l-7.8,.5l-7,1.6l-5.9,2.4l-4.6,3.1l-2.9,3.6l-1.1,4.1l1.1,4.1l2.9,3.6l4.6,3.1l5.9,2.4l7,1.6l7.8,.5l7.7,-.5l7,-1.6l5.9,-2.4l4.6,-3.1l3,-3.6l1,-4.1l-1,-4.1l-3,-3.6l-4.6,-3.1l-5.9,-2.4l-7,-1.6L90.1,345Z" class="g0_14"/>
<path d="M60.8,360.3l4,-7.7l4.6,-3.1l5.9,-2.4l7,-1.6l7.8,-.5l7.7,.5l7,1.6l5.9,2.4l4.6,3.1l3,3.6l1,4.1l-1,4.1l-3,3.6l-4.6,3.1l-5.9,2.4l-7,1.6l-7.7,.5l-7.8,-.5l-7,-1.6l-5.9,-2.4L64.8,368l-2.9,-3.6l-1.1,-4.1Z" class="g4_14"/>
<path fill-rule="evenodd" d="M50.4,399.5l-7.8,.5l-7,1.5l-5.8,2.4L25.2,407l-2.9,3.7l-1.1,4.1l1.1,4l2.9,3.7l4.6,3.1l5.8,2.4l7,1.5l7.8,.5l7.7,-.5l7,-1.5L71,425.6l4.5,-3.1l3,-3.7l1,-4l-1,-4.1l-3,-3.7L71,403.9l-5.9,-2.4l-7,-1.5l-7.7,-.5Z" class="g0_14"/>
<path d="M21.2,414.8l4,-7.8l4.6,-3.1l5.8,-2.4l7,-1.5l7.8,-.5l7.7,.5l7,1.5l5.9,2.4l4.5,3.1l3,3.7l1,4.1l-1,4l-3,3.7L71,425.6L65.1,428l-7,1.5l-7.7,.5l-7.8,-.5l-7,-1.5l-5.8,-2.4l-4.6,-3.1l-2.9,-3.7l-1.1,-4Z" class="g4_14"/>
<path fill-rule="evenodd" d="M221.6,451.1l-7.8,.5l-7,1.6l-5.9,2.3l-4.6,3.2l-2.9,3.6l-1.1,4l1.1,4.1l2.9,3.6l4.6,3.1l5.9,2.4l7,1.5l7.8,.5l7.7,-.5l7,-1.5l5.9,-2.4l4.6,-3.1l3,-3.6l1,-4.1l-1,-4l-3,-3.6l-4.6,-3.2l-5.9,-2.3l-7,-1.6l-7.7,-.5Z" class="g0_14"/>
<path d="M192.3,466.3l4,-7.6l4.6,-3.2l5.9,-2.3l7,-1.6l7.8,-.5l7.7,.5l7,1.6l5.9,2.3l4.6,3.2l3,3.6l1,4l-1,4.1l-3,3.6l-4.6,3.1l-5.9,2.4l-7,1.5l-7.7,.5l-7.8,-.5l-7,-1.5l-5.9,-2.4L196.3,474l-2.9,-3.6l-1.1,-4.1Z" class="g4_14"/>
<path fill-rule="evenodd" d="M364.8,450.7l-7.8,.5l-6.9,1.5l-5.9,2.4l-4.6,3.1l-2.9,3.7l-1.1,4l1.1,4.1l2.9,3.6l4.6,3.2l5.9,2.3l6.9,1.6l7.8,.5l7.7,-.5l7,-1.6l5.9,-2.3l4.5,-3.2l3,-3.6l1,-4.1l-1,-4l-3,-3.7l-4.5,-3.1l-5.9,-2.4l-7,-1.5l-7.7,-.5Z" class="g0_14"/>
<path d="M335.6,465.9l4,-7.7l4.6,-3.1l5.9,-2.4l6.9,-1.5l7.8,-.5l7.7,.5l7,1.5l5.9,2.4l4.5,3.1l3,3.7l1,4l-1,4.1l-3,3.6l-4.5,3.2l-5.9,2.3l-7,1.6l-7.7,.5l-7.8,-.5l-6.9,-1.6l-5.9,-2.3l-4.6,-3.2L336.7,470l-1.1,-4.1Z" class="g4_14"/>
<path fill-rule="evenodd" d="M592.8,424.4l-7.8,.5l-7,1.6l-5.9,2.4l-4.6,3.1l-2.9,3.6l-1,4.1l1,4.1l2.9,3.6l4.6,3.1l5.9,2.4l7,1.6l7.8,.5l7.7,-.5l7,-1.6l5.9,-2.4l4.6,-3.1l3,-3.6l1,-4.1l-1,-4.1L618,432l-4.6,-3.1l-5.9,-2.4l-7,-1.6l-7.7,-.5Z" class="g0_14"/>
<path d="M563.6,439.7l3.9,-7.7l4.6,-3.1l5.9,-2.4l7,-1.6l7.8,-.5l7.7,.5l7,1.6l5.9,2.4L618,432l3,3.6l1,4.1l-1,4.1l-3,3.6l-4.6,3.1l-5.9,2.4l-7,1.6l-7.7,.5l-7.8,-.5l-7,-1.6l-5.9,-2.4l-4.6,-3.1l-2.9,-3.6l-1,-4.1Z" class="g4_14"/>
<path fill-rule="evenodd" d="M676.4,397.3l-7.8,.5l-7,1.5l-5.9,2.4l-4.5,3.1l-3,3.6l-1,4.1l1,4l3,3.6l4.5,3.1l5.9,2.4l7,1.5l7.8,.6l7.8,-.6l6.9,-1.5l6,-2.4l4.6,-3.1l2.9,-3.6l1,-4l-1,-4.1l-2.9,-3.6l-4.6,-3.1l-6,-2.4l-6.9,-1.5l-7.8,-.5Z" class="g0_14"/>
<path d="M647.2,412.5l4,-7.7l4.5,-3.1l5.9,-2.4l7,-1.5l7.8,-.5l7.8,.5l6.9,1.5l6,2.4l4.6,3.1l2.9,3.6l1,4.1l-1,4l-2.9,3.6l-4.6,3.1l-6,2.4l-6.9,1.5l-7.8,.6l-7.8,-.6l-7,-1.5l-5.9,-2.4l-4.5,-3.1l-3,-3.6l-1,-4Z" class="g4_14"/>
<path fill-rule="evenodd" d="M709.6,427.5l-7.8,.5l-7,1.6l-5.9,2.4l-4.6,3.1l-2.9,3.6l-1,4.1l1,4.1l2.9,3.6l4.6,3.1l5.9,2.4l7,1.6l7.8,.5l7.7,-.5l7,-1.6l5.9,-2.4l4.6,-3.1l3,-3.6l1,-4.1l-1,-4.1l-3,-3.6L730.2,432l-5.9,-2.4l-7,-1.6l-7.7,-.5Z" class="g0_14"/>
<path d="M680.4,442.8l3.9,-7.7l4.6,-3.1l5.9,-2.4l7,-1.6l7.8,-.5l7.7,.5l7,1.6l5.9,2.4l4.6,3.1l3,3.6l1,4.1l-1,4.1l-3,3.6l-4.6,3.1l-5.9,2.4l-7,1.6l-7.7,.5l-7.8,-.5l-7,-1.6l-5.9,-2.4l-4.6,-3.1l-2.9,-3.6l-1,-4.1Z" class="g4_14"/>
<path fill-rule="evenodd" d="M813,402.9l-7.7,.5l-7,1.6l-5.9,2.3l-4.6,3.2l-2.9,3.6l-1,4l1,4.1l2.9,3.6l4.6,3.1l5.9,2.4l7,1.5l7.7,.5l7.8,-.5l7,-1.5l5.9,-2.4l4.5,-3.1l3,-3.6l1,-4.1l-1,-4l-3,-3.6l-4.5,-3.2L827.8,405l-7,-1.6l-7.8,-.5Z" class="g0_14"/>
<path d="M783.9,418.1l3.9,-7.6l4.6,-3.2l5.9,-2.3l7,-1.6l7.7,-.5l7.8,.5l7,1.6l5.9,2.3l4.5,3.2l3,3.6l1,4l-1,4.1l-3,3.6l-4.5,3.1l-5.9,2.4l-7,1.5l-7.8,.5l-7.7,-.5l-7,-1.5l-5.9,-2.4l-4.6,-3.1l-2.9,-3.6l-1,-4.1Z" class="g4_14"/>
<path fill-rule="evenodd" d="M665.3,342.6l-7.8,.5l-6.9,1.5l-5.9,2.4l-4.6,3.1l-2.9,3.7l-1.1,4l1.1,4l2.9,3.7l4.6,3l5.9,2.4l6.9,1.6l7.8,.5l7.7,-.5l7,-1.6l5.9,-2.4l4.5,-3l3,-3.7l1,-4l-1,-4l-3,-3.7L685.9,347L680,344.6l-7,-1.5l-7.7,-.5Z" class="g0_14"/>
<path d="M636.1,357.8l4,-7.7l4.6,-3.1l5.9,-2.4l6.9,-1.5l7.8,-.5l7.7,.5l7,1.5l5.9,2.4l4.5,3.1l3,3.7l1,4l-1,4l-3,3.7l-4.5,3l-5.9,2.4l-7,1.6l-7.7,.5l-7.8,-.5l-6.9,-1.6l-5.9,-2.4l-4.6,-3l-2.9,-3.7l-1.1,-4Z" class="g4_14"/>
<path fill-rule="evenodd" d="M665.3,288l-7.8,.6l-6.9,1.5l-5.9,2.4l-4.6,3.1l-2.9,3.7l-1.1,4l1.1,4.1l2.9,3.6l4.6,3.1l5.9,2.4l6.9,1.6l7.8,.5l7.7,-.5l7,-1.6l5.9,-2.4l4.5,-3.1l3,-3.6l1,-4.1l-1,-4l-3,-3.7l-4.5,-3.1L680,290.1l-7,-1.5l-7.7,-.6Z" class="g0_14"/>
<path d="M636.1,303.3l4,-7.7l4.6,-3.1l5.9,-2.4l6.9,-1.5l7.8,-.6l7.7,.6l7,1.5l5.9,2.4l4.5,3.1l3,3.7l1,4l-1,4.1l-3,3.6l-4.5,3.1l-5.9,2.4l-7,1.6l-7.7,.5l-7.8,-.5l-6.9,-1.6l-5.9,-2.4L640.1,311l-2.9,-3.6l-1.1,-4.1Z" class="g4_14"/>
<path fill-rule="evenodd" d="M675.9,251.5l-7.8,.5l-6.9,1.5l-5.9,2.4l-4.6,3.1l-2.9,3.7l-1.1,4l1.1,4l2.9,3.7l4.6,3l5.9,2.4l6.9,1.6l7.8,.5l7.7,-.5l7,-1.6l5.9,-2.4l4.6,-3l2.9,-3.7l1,-4l-1,-4L701.1,259l-4.6,-3.1l-5.9,-2.4l-7,-1.5l-7.7,-.5Z" class="g0_14"/>
<path d="M646.7,266.7l4,-7.7l4.6,-3.1l5.9,-2.4l6.9,-1.5l7.8,-.5l7.7,.5l7,1.5l5.9,2.4l4.6,3.1l2.9,3.7l1,4l-1,4l-2.9,3.7l-4.6,3l-5.9,2.4l-7,1.6l-7.7,.5l-7.8,-.5l-6.9,-1.6l-5.9,-2.4l-4.6,-3l-2.9,-3.7l-1.1,-4Z" class="g4_14"/>
<path fill-rule="evenodd" d="M709.6,201.4l-7.8,.5l-7,1.6l-5.9,2.3l-4.6,3.2l-2.9,3.6l-1,4l1,4l2.9,3.7l4.6,3.1l5.9,2.3l7,1.6l7.8,.5l7.7,-.5l7,-1.6l5.9,-2.3l4.6,-3.1l3,-3.7l1,-4l-1,-4l-3,-3.6l-4.6,-3.2l-5.9,-2.3l-7,-1.6l-7.7,-.5Z" class="g0_14"/>
<path d="M680.4,216.6l3.9,-7.6l4.6,-3.2l5.9,-2.3l7,-1.6l7.8,-.5l7.7,.5l7,1.6l5.9,2.3l4.6,3.2l3,3.6l1,4l-1,4l-3,3.7l-4.6,3.1l-5.9,2.3l-7,1.6l-7.7,.5l-7.8,-.5l-7,-1.6l-5.9,-2.3l-4.6,-3.1l-2.9,-3.7l-1,-4Z" class="g4_14"/>
<path fill-rule="evenodd" d="M900.1,112l-7.8,.6l-7,1.5l-5.9,2.4l-4.6,3.1l-2.9,3.7l-1.1,4l1.1,4.1l2.9,3.6l4.6,3.1l5.9,2.4l7,1.6l7.8,.5l7.7,-.5l7,-1.6l5.9,-2.4l4.6,-3.1l2.9,-3.6l1.1,-4.1l-1.1,-4l-2.9,-3.7l-4.6,-3.1l-5.9,-2.4l-7,-1.5l-7.7,-.6Z" class="g0_14"/>
<path d="M870.8,127.3l4,-7.7l4.6,-3.1l5.9,-2.4l7,-1.5l7.8,-.6l7.7,.6l7,1.5l5.9,2.4l4.6,3.1l2.9,3.7l1.1,4l-1.1,4.1l-2.9,3.6l-4.6,3.1l-5.9,2.4l-7,1.6l-7.7,.5l-7.8,-.5l-7,-1.6l-5.9,-2.4L874.8,135l-2.9,-3.6l-1.1,-4.1Z" class="g4_14"/>
<path fill-rule="evenodd" d="M858.4,138.9l-7.8,.5l-6.9,1.6l-6,2.3l-4.5,3.2l-3,3.6l-1,4l1,4.1l3,3.6l4.5,3.1l6,2.4l6.9,1.5l7.8,.5l7.8,-.5l7,-1.5l5.9,-2.4l4.6,-3.1l2.9,-3.6l1.1,-4.1l-1.1,-4l-2.9,-3.6l-4.6,-3.2L873.2,141l-7,-1.6l-7.8,-.5Z" class="g0_14"/>
<path d="M829.2,154.1l4,-7.6l4.5,-3.2l6,-2.3l6.9,-1.6l7.8,-.5l7.8,.5l7,1.6l5.9,2.3l4.6,3.2l2.9,3.6l1.1,4l-1.1,4.1l-2.9,3.6l-4.6,3.1l-5.9,2.4l-7,1.5l-7.8,.5l-7.8,-.5l-6.9,-1.5l-6,-2.4l-4.5,-3.1l-3,-3.6l-1,-4.1Z" class="g4_14"/>
<path fill-rule="evenodd" d="M967.2,169.7l-7.8,.5l-7,1.6l-5.9,2.3l-4.6,3.2l-2.9,3.6l-1.1,4l1.1,4l2.9,3.7l4.6,3.1l5.9,2.3l7,1.6l7.8,.5l7.7,-.5l7,-1.6l5.9,-2.3l4.6,-3.1l3,-3.7l1,-4l-1,-4l-3,-3.6l-4.6,-3.2l-5.9,-2.3l-7,-1.6l-7.7,-.5Z" class="g0_14"/>
<path d="M937.9,184.9l4,-7.6l4.6,-3.2l5.9,-2.3l7,-1.6l7.8,-.5l7.7,.5l7,1.6l5.9,2.3l4.6,3.2l3,3.6l1,4l-1,4l-3,3.7l-4.6,3.1l-5.9,2.3l-7,1.6l-7.7,.5l-7.8,-.5l-7,-1.6l-5.9,-2.3l-4.6,-3.1L939,188.9l-1.1,-4Z" class="g4_14"/>
<path fill-rule="evenodd" d="M913.1,211l-7.8,.5l-7,1.5l-5.9,2.4l-4.6,3.1l-2.9,3.7l-1,4l1,4l2.9,3.7l4.6,3l5.9,2.4l7,1.6l7.8,.5l7.7,-.5l7,-1.6l5.9,-2.4l4.6,-3l3,-3.7l1,-4l-1,-4l-3,-3.7l-4.6,-3.1L927.8,213l-7,-1.5l-7.7,-.5Z" class="g0_14"/>
<path d="M883.9,226.2l3.9,-7.7l4.6,-3.1l5.9,-2.4l7,-1.5l7.8,-.5l7.7,.5l7,1.5l5.9,2.4l4.6,3.1l3,3.7l1,4l-1,4l-3,3.7l-4.6,3l-5.9,2.4l-7,1.6l-7.7,.5l-7.8,-.5l-7,-1.6l-5.9,-2.4l-4.6,-3l-2.9,-3.7l-1,-4Z" class="g4_14"/>
<path fill-rule="evenodd" d="M997.6,211.7l-7.8,.5l-7,1.6l-5.9,2.3l-4.6,3.2l-2.9,3.6l-1.1,4l1.1,4.1l2.9,3.6l4.6,3.1l5.9,2.4l7,1.5l7.8,.5l7.7,-.5l7,-1.5l5.9,-2.4l4.6,-3.1l3,-3.6l1,-4.1l-1,-4l-3,-3.6l-4.6,-3.2l-5.9,-2.3l-7,-1.6l-7.7,-.5Z" class="g0_14"/>
<path d="M968.3,226.9l4,-7.6l4.6,-3.2l5.9,-2.3l7,-1.6l7.8,-.5l7.7,.5l7,1.6l5.9,2.3l4.6,3.2l3,3.6l1,4l-1,4.1l-3,3.6l-4.6,3.1l-5.9,2.4l-7,1.5l-7.7,.5l-7.8,-.5l-7,-1.5l-5.9,-2.4l-4.6,-3.1L969.4,231l-1.1,-4.1Z" class="g4_14"/>
<path fill-rule="evenodd" d="M1013.7,294.7l-7.8,.6l-6.9,1.5l-6,2.4l-4.5,3.1l-3,3.6l-1,4l1,4.1l3,3.6l4.5,3.1l6,2.4l6.9,1.5l7.8,.5l7.8,-.5l7,-1.5l5.9,-2.4l4.6,-3.1l2.9,-3.6l1.1,-4.1l-1.1,-4l-2.9,-3.6l-4.6,-3.1l-5.9,-2.4l-7,-1.5l-7.8,-.6Z" class="g0_14"/>
<path d="M984.5,309.9l4,-7.6l4.5,-3.1l6,-2.4l6.9,-1.5l7.8,-.6l7.8,.6l7,1.5l5.9,2.4l4.6,3.1l2.9,3.6l1.1,4l-1.1,4.1l-2.9,3.6l-4.6,3.1l-5.9,2.4l-7,1.5l-7.8,.5l-7.8,-.5L999,323.1l-6,-2.4l-4.5,-3.1l-3,-3.6l-1,-4.1Z" class="g4_14"/>
<path fill-rule="evenodd" d="M862.3,332.7l-7.8,.5l-7,1.6l-5.9,2.4l-4.6,3.1l-2.9,3.6l-1,4.1l1,4.1l2.9,3.6l4.6,3.1l5.9,2.4l7,1.6l7.8,.5l7.7,-.5l7,-1.6l5.9,-2.4l4.6,-3.1l3,-3.6l1,-4.1l-1,-4.1l-3,-3.6l-4.6,-3.1L877,334.8l-7,-1.6l-7.7,-.5Z" class="g0_14"/>
<path d="M833.1,348l3.9,-7.7l4.6,-3.1l5.9,-2.4l7,-1.6l7.8,-.5l7.7,.5l7,1.6l5.9,2.4l4.6,3.1l3,3.6l1,4.1l-1,4.1l-3,3.6l-4.6,3.1l-5.9,2.4l-7,1.6l-7.7,.5l-7.8,-.5l-7,-1.6l-5.9,-2.4L837,355.7l-2.9,-3.6l-1,-4.1Z" class="g4_14"/>
<path fill-rule="evenodd" d="M894.9,363.3l-7.8,.6l-6.9,1.5l-6,2.4l-4.5,3.1l-3,3.7l-1,4l1,4.1l3,3.6l4.5,3.2l6,2.3l6.9,1.6l7.8,.5l7.8,-.5l7,-1.6l5.9,-2.3l4.6,-3.2l2.9,-3.6l1.1,-4.1l-1.1,-4l-2.9,-3.7l-4.6,-3.1l-5.9,-2.4l-7,-1.5l-7.8,-.6Z" class="g0_14"/>
<path d="M865.7,378.6l4,-7.7l4.5,-3.1l6,-2.4l6.9,-1.5l7.8,-.6l7.8,.6l7,1.5l5.9,2.4l4.6,3.1l2.9,3.7l1.1,4l-1.1,4.1l-2.9,3.6l-4.6,3.2l-5.9,2.3l-7,1.6l-7.8,.5l-7.8,-.5l-6.9,-1.6l-6,-2.3l-4.5,-3.2l-3,-3.6l-1,-4.1Z" class="g4_14"/>
<path fill-rule="evenodd" d="M828.2,368.8l-7.8,.5l-7,1.5l-5.9,2.4l-4.5,3.1l-3,3.7l-1,4l1,4l3,3.7l4.5,3l5.9,2.4l7,1.6l7.8,.5l7.8,-.5l6.9,-1.6l6,-2.4l4.6,-3l2.9,-3.7l1,-4l-1,-4l-2.9,-3.7l-4.6,-3.1l-6,-2.4L836,369.3l-7.8,-.5Z" class="g0_14"/>
<path d="M799,384l4,-7.7l4.5,-3.1l5.9,-2.4l7,-1.5l7.8,-.5l7.8,.5l6.9,1.5l6,2.4l4.6,3.1l2.9,3.7l1,4l-1,4l-2.9,3.7l-4.6,3l-6,2.4l-6.9,1.6l-7.8,.5l-7.8,-.5l-7,-1.6l-5.9,-2.4l-4.5,-3L800,388l-1,-4Z" class="g4_14"/>
<g clip-path="url(#c3_14)" opacity="0.5">
<path fill-rule="evenodd" d="M252.2,406.6H237.9v33.7h14.3V406.6Z" class="g5_14"/>
</g>
<path d="M237.9,440.3h14.3V406.6H237.9v33.7Z" class="g6_14"/>
<g clip-path="url(#c4_14)" opacity="0.5">
<path fill-rule="evenodd" d="M274,406.6H259.8v33.7H274V406.6Z" class="g5_14"/>
</g>
<path d="M259.8,440.3H274V406.6H259.8v33.7Z" class="g6_14"/>
<g clip-path="url(#c5_14)" opacity="0.5">
<path fill-rule="evenodd" d="M220.9,406.7h-5.5v6.5h5.5v-6.5Z" class="g5_14"/>
</g>
<path d="M215.4,413.2h5.5v-6.5h-5.5v6.5Z" class="g6_14"/>
<g clip-path="url(#c6_14)" opacity="0.5">
<path fill-rule="evenodd" d="M335.1,413.6H297.7l1.1,37h27.9v-18h8.4v-19Z" class="g5_14"/>
</g>
<path d="M297.7,413.6h37.4v19h-8.4v18H298.8l-1.1,-37Z" class="g6_14"/>
<g clip-path="url(#c7_14)" opacity="0.5">
<path fill-rule="evenodd" d="M701.4,384.1H8.3v5.5H701.4v-5.5Z" class="g5_14"/>
</g>
<path d="M8.3,389.6H701.4v-5.5H8.3v5.5Z" class="g6_14"/>
<g clip-path="url(#c8_14)" opacity="0.5">
<path fill-rule="evenodd" d="M553.5,407.6h-8.1v5.5h8.1v-5.5Z" class="g5_14"/>
</g>
<path d="M545.4,413.1h8.1v-5.5h-8.1v5.5Z" class="g6_14"/>
<g clip-path="url(#c9_14)" opacity="0.5">
<path fill-rule="evenodd" d="M567.2,407.6h-11v5.5h11v-5.5Z" class="g5_14"/>
</g>
<path d="M556.2,413.1h11v-5.5h-11v5.5Z" class="g6_14"/>
<image clip-path="url(#c0_14)" preserveAspectRatio="none" x="588" y="113" width="406" height="318" xlink:href="img/4.png"/>
<g clip-path="url(#ca_14)" opacity="0.5">
<path fill-rule="evenodd" d="M837.4,208.8H826.3v18.1h11.1V208.8Z" class="g5_14"/>
</g>
<path d="M826.3,226.9h11.1V208.8H826.3v18.1Z" class="g6_14"/>
<path fill-rule="evenodd" d="M516.7,424.6l-7.8,.5l-7,1.6L496,429l-4.6,3.2l-2.9,3.6l-1,4.1l1,4l2.9,3.7l4.6,3.1l5.9,2.4l7,1.5l7.8,.6l7.7,-.6l7,-1.5l6,-2.4l4.5,-3.1l3,-3.7l1,-4l-1,-4.1l-3,-3.6L537.4,429l-6,-2.3l-7,-1.6l-7.7,-.5Z" class="g0_14"/>
<path d="M487.5,439.9l3.9,-7.7L496,429l5.9,-2.3l7,-1.6l7.8,-.5l7.7,.5l7,1.6l6,2.3l4.5,3.2l3,3.6l1,4.1l-1,4l-3,3.7l-4.5,3.1l-6,2.4l-7,1.5l-7.7,.6l-7.8,-.6l-7,-1.5L496,450.7l-4.6,-3.1l-2.9,-3.7l-1,-4Z" class="g4_14"/>
<path fill-rule="evenodd" d="M284.8,451.1l-7.8,.5l-7,1.6l-5.9,2.3l-4.6,3.2l-2.9,3.6l-1,4l1,4.1l2.9,3.6l4.6,3.1l5.9,2.4l7,1.5l7.8,.5l7.7,-.5l7,-1.5l5.9,-2.4L310,474l3,-3.6l1,-4.1l-1,-4l-3,-3.6l-4.6,-3.2l-5.9,-2.3l-7,-1.6l-7.7,-.5Z" class="g0_14"/>
<path d="M255.6,466.3l3.9,-7.6l4.6,-3.2l5.9,-2.3l7,-1.6l7.8,-.5l7.7,.5l7,1.6l5.9,2.3l4.6,3.2l3,3.6l1,4l-1,4.1l-3,3.6l-4.6,3.1l-5.9,2.4l-7,1.5l-7.7,.5L277,481l-7,-1.5l-5.9,-2.4L259.5,474l-2.9,-3.6l-1,-4.1Z" class="g4_14"/>
<path fill-rule="evenodd" d="M209.1,345.2l-7.7,.5l-7,1.5l-5.9,2.4l-4.6,3.1l-2.9,3.6l-1,4.1l1,4l2.9,3.6l4.6,3.1l5.9,2.4l7,1.5l7.7,.6l7.8,-.6l7,-1.5l5.8,-2.4l4.6,-3.1l2.9,-3.6l1.1,-4l-1.1,-4.1l-2.9,-3.6l-4.6,-3.1l-5.8,-2.4l-7,-1.5l-7.8,-.5Z" class="g0_14"/>
<path d="M180,360.4l3.9,-7.7l4.6,-3.1l5.9,-2.4l7,-1.5l7.7,-.5l7.8,.5l7,1.5l5.8,2.4l4.6,3.1l2.9,3.6l1.1,4.1l-1.1,4l-2.9,3.6l-4.6,3.1l-5.8,2.4l-7,1.5l-7.8,.6l-7.7,-.6l-7,-1.5l-5.9,-2.4L183.9,368L181,364.4l-1,-4Z" class="g4_14"/>
<path d="M71.2,404.1L91.1,389.6m127.1,17.1l-8.9,-31m12.4,75.4l16.4,-27.6M285,451.1L274.2,423.5m70,31.6L326.8,432.7m210.6,-3.6l12,-16m22.9,15.8L561.8,413.1" class="g7_14"/>
<path fill-rule="evenodd" d="M655.9,138.4l-7.7,.5l-7,1.5l-5.9,2.4l-4.6,3.1l-2.9,3.6l-1,4.1l1,4l2.9,3.6l4.6,3.1l5.9,2.4l7,1.5l7.7,.6l7.8,-.6l7,-1.5l5.8,-2.4l4.6,-3.1l2.9,-3.6l1.1,-4L684,149.5l-2.9,-3.6l-4.6,-3.1l-5.8,-2.4l-7,-1.5l-7.8,-.5Z" class="g0_14"/>
<path d="M626.8,153.6l3.9,-7.7l4.6,-3.1l5.9,-2.4l7,-1.5l7.7,-.5l7.8,.5l7,1.5l5.8,2.4l4.6,3.1l2.9,3.6l1.1,4.1l-1.1,4l-2.9,3.6l-4.6,3.1l-5.8,2.4l-7,1.5l-7.8,.6l-7.7,-.6l-7,-1.5l-5.9,-2.4l-4.6,-3.1l-2.9,-3.6l-1,-4Z" class="g4_14"/>
<path d="M676.5,163.5l34,29m52.4,-63.4l69.4,67.1" class="g7_14"/>
<g clip-path="url(#cb_14)" opacity="0.5">
<path fill-rule="evenodd" d="M835.4,196.2h-5.9v5.5h5.9v-5.5Z" class="g5_14"/>
</g>
<path d="M829.5,201.7h5.9v-5.5h-5.9v5.5Z" class="g6_14"/>
<path fill-rule="evenodd" d="M762.9,98.4l-7.8,.6l-6.9,1.5l-6,2.4l-4.5,3.1l-3,3.7l-1,4l1,4.1l3,3.6l4.5,3.2l6,2.3l6.9,1.6l7.8,.5l7.8,-.5l7,-1.6l5.9,-2.3l4.6,-3.2l2.9,-3.6l1.1,-4.1l-1.1,-4L788.2,106l-4.6,-3.1l-5.9,-2.4l-7,-1.5l-7.8,-.6Z" class="g0_14"/>
<path d="M733.7,113.7l4,-7.7l4.5,-3.1l6,-2.4L755.1,99l7.8,-.6l7.8,.6l7,1.5l5.9,2.4l4.6,3.1l2.9,3.7l1.1,4l-1.1,4.1l-2.9,3.6l-4.6,3.2l-5.9,2.3l-7,1.6l-7.8,.5l-7.8,-.5l-6.9,-1.6l-6,-2.3l-4.5,-3.2l-3,-3.6l-1,-4.1Z" class="g4_14"/>
<path fill-rule="evenodd" d="M776.9,140.2l-7.7,.5l-7,1.6l-5.9,2.3l-4.6,3.2l-2.9,3.6l-1,4l1,4.1l2.9,3.6l4.6,3.1l5.9,2.4l7,1.5l7.7,.5l7.8,-.5l7,-1.5l5.8,-2.4l4.6,-3.1l2.9,-3.6l1.1,-4.1l-1.1,-4l-2.9,-3.6l-4.6,-3.2l-5.8,-2.3l-7,-1.6l-7.8,-.5Z" class="g0_14"/>
<path d="M747.8,155.4l3.9,-7.6l4.6,-3.2l5.9,-2.3l7,-1.6l7.7,-.5l7.8,.5l7,1.6l5.8,2.3l4.6,3.2l2.9,3.6l1.1,4l-1.1,4.1l-2.9,3.6l-4.6,3.1l-5.8,2.4l-7,1.5l-7.8,.5l-7.7,-.5l-7,-1.5l-5.9,-2.4l-4.6,-3.1l-2.9,-3.6l-1,-4.1Z" class="g4_14"/>
</svg>